v 1.00 -1.00 -1.00
v 1.00 -1.00 1.00
v -1.000000 -1.000000 1.000000
v -1.000000 -1.000000 -1.000000
v 1.000000 1.000000 -1.000000
v 1.00000 1.000000 1.000000
v -1.000000 1.000000 1.000000
v -1.000000 1.000000 -1.000000

vt 0.0 0.0
vt 1.0 0.0
vt 1.0 1.0
vt 0.0 1.0

vn 0.000000 0.000000 -1.000000
vn -1.000000 -0.000000 -0.000000
vn -0.000000 -0.000000 1.000000
vn -0.000001 0.000000 1.000000
vn 1.000000 -0.000000 0.000000
vn 1.000000 0.000000 0.000001
vn 0.000000 1.000000 -0.000000
vn -0.000000 -1.000000 0.000000

f 5/3/1 1/2/1 4/1/1
f 5/3/1 4/1/1 8/4/1
f 3/1/2 7/4/2 8/3/2
f 3/1/2 8/3/2 4/2/2
f 2/2/3 6/3/3 3/1/3
f 6/3/4 7/4/4 3/1/4
f 1/2/5 5/3/5 2/1/5
f 5/3/6 6/4/6 2/1/6
f 8/4/7 6/2/7 5/3/7 
f 8/4/7 7/1/7 6/2/7
f 1/3/8 2/2/8 3/1/8
f 1/3/8 3/1/8 4/4/8
