# 3ds Max Wavefront OBJ Exporter v0.99 - (c)2007 guruware
# File Created: 04.12.2023 21:15:44

mtllib police_leftleg.mtl

#
# object police_leftleg
#

v  0.0794 -12.7497 4.8530
v  -0.7251 -13.7214 8.0064
v  -0.8776 -12.2768 6.2973
v  2.4042 -12.4854 4.6639
v  3.3426 -11.8176 7.2103
v  3.4945 -13.2634 7.6216
v  1.4301 -11.7798 9.2548
v  1.6749 -13.5542 9.6343
v  0.0376 -14.3688 5.1920
v  -0.5851 -15.0672 7.8592
v  2.6406 -14.1059 4.9561
v  3.6340 -14.6105 7.4771
v  1.8987 -15.2927 9.4605
v  -1.9207 -7.0856 5.6222
v  -1.3944 -6.8523 3.2644
v  1.9728 -7.9903 1.6929
v  3.1967 -6.7920 4.8788
v  0.8136 -6.4050 6.8781
v  -2.9451 -2.8478 2.3424
v  -2.2682 -3.9235 -0.3245
v  -2.4825 -1.2594 4.2530
v  0.0061 -0.1456 4.1217
v  2.0778 -1.7560 -0.9028
v  2.3237 -0.1913 2.1152
v  0.0046 -3.4080 -1.5810
v  1.5856 -28.5713 4.4463
v  0.8922 -28.5911 7.4182
v  0.3323 -22.2832 7.4162
v  0.9757 -22.2547 4.6574
v  5.4065 -28.2047 7.0098
v  4.3703 -28.3531 4.1950
v  3.5572 -22.0117 4.4241
v  4.5168 -21.8589 7.0372
v  3.3195 -28.4383 9.0222
v  2.5735 -22.1061 8.9053
v  -0.4794 -18.2795 7.5053
v  0.2736 -18.2365 4.4013
v  3.2934 -17.9140 4.2012
v  4.4149 -17.7210 7.0613
v  2.2251 -18.0368 9.1288
v  1.3310 -30.2408 4.0361
v  0.5631 -30.2512 7.7252
v  6.0096 -29.7694 7.0544
v  4.7882 -29.9703 3.7247
v  3.4807 -30.0502 9.7173
v  1.2302 -32.7342 3.6009
v  0.6738 -32.7341 7.6491
v  6.2797 -32.7348 6.9168
v  4.8838 -32.7329 3.2291
v  3.7583 -31.9559 12.5123
v  6.9616 -32.7355 11.7806
v  0.5863 -32.7340 12.5144
v  1.2548 -36.1890 3.6078
v  0.8562 -36.1890 7.2254
v  6.1703 -36.1890 6.8461
v  4.9126 -36.1890 3.2363
v  0.7824 -36.1889 12.0479
v  7.1839 -36.1889 11.6113
v  3.9965 -33.6447 15.8599
v  7.1510 -34.5598 15.7051
v  1.0281 -33.7884 15.7918
v  0.8761 -36.1889 15.5610
v  7.4265 -36.1889 15.4780
v  1.3922 -34.3301 17.3713
v  2.8748 -34.2249 17.5731
v  1.4022 -36.1889 17.4682
v  2.9213 -36.1889 17.5935
v  -3.0863 0.7175 3.7454
v  -3.6877 -1.3473 1.2618
v  -2.8078 -2.7456 -2.2050
v  0.1486 2.1653 3.5747
v  2.4354 0.0719 -2.9567
v  2.4249 2.1060 0.9664
v  0.1467 -2.0755 -3.8383
v  -0.4691 1.8209 -1.7731
# 75 vertices

vn -0.5252 -0.2909 -0.7998
vn -0.9133 0.0443 0.4048
vn -0.9736 -0.2278 0.0114
vn 0.5523 -0.2009 -0.8091
vn 0.9650 0.1508 0.2145
vn 0.9596 0.1294 0.2497
vn 0.0100 0.3119 0.9501
vn 0.1049 0.0627 0.9925
vn -0.6960 -0.0179 -0.7178
vn -0.9252 -0.1033 0.3651
vn 0.5635 0.1056 -0.8193
vn 0.9669 0.1341 0.2169
vn 0.1421 -0.0837 0.9863
vn -0.9071 -0.0450 0.4185
vn -0.7457 -0.4839 -0.4581
vn 0.3670 -0.5296 -0.7647
vn 0.9614 0.1576 0.2257
vn 0.1296 0.3841 0.9142
vn -0.9541 -0.2753 0.1178
vn -0.5977 -0.7189 -0.3550
vn -0.6204 0.1096 0.7766
vn 0.3005 0.3210 0.8981
vn 0.8995 -0.3111 -0.3068
vn 0.9011 0.2006 0.3844
vn 0.1951 -0.7449 -0.6380
vn -0.6500 0.1316 -0.7484
vn -0.9293 0.0944 0.3570
vn -0.9165 -0.1318 0.3778
vn -0.6490 -0.1013 -0.7541
vn 0.9411 0.2609 0.2152
vn 0.5073 0.2411 -0.8273
vn 0.5335 0.0401 -0.8449
vn 0.9707 0.0807 0.2265
vn 0.0755 0.2354 0.9690
vn 0.0838 -0.0105 0.9964
vn -0.9249 -0.1345 0.3556
vn -0.6359 -0.0189 -0.7715
vn 0.5178 0.1165 -0.8475
vn 0.9741 0.1137 0.1954
vn 0.1287 -0.0654 0.9895
vn -0.6633 0.2039 -0.7201
vn -0.9434 0.2647 0.1996
vn 0.9318 0.3607 0.0414
vn 0.5265 0.2531 -0.8116
vn 0.0398 0.7373 0.6744
vn -0.6754 0.0622 -0.7348
vn -0.9966 -0.0404 -0.0718
vn 0.9657 0.0504 -0.2546
vn 0.5136 0.0851 -0.8538
vn 0.0714 0.8706 0.4869
vn 0.8196 0.5378 0.1973
vn -0.8221 0.5036 0.2656
vn -0.5613 -0.5940 -0.5763
vn -0.7003 -0.7123 -0.0465
vn 0.6856 -0.7020 -0.1924
vn 0.4302 -0.5921 -0.6814
vn -0.6917 -0.7222 0.0021
vn 0.7402 -0.6683 -0.0741
vn 0.1462 0.8947 0.4221
vn 0.7270 0.4150 0.5470
vn -0.7069 0.6123 0.3541
vn -0.7263 -0.6757 0.1263
vn 0.7370 -0.5658 0.3697
vn -0.5749 0.4551 0.6800
vn 0.0919 0.5501 0.8300
vn -0.5155 -0.5810 0.6298
vn 0.1217 -0.6466 0.7530
vn -0.7029 0.4898 0.5157
vn -0.9966 0.0526 -0.0631
vn -0.7169 -0.3163 -0.6213
vn 0.1809 0.7626 0.6211
vn 0.7110 0.1978 -0.6748
vn 0.7073 0.6987 0.1077
vn 0.0847 -0.3166 -0.9448
vn -0.3039 0.7983 -0.5199
# 75 vertex normals

vt 0.5983 0.5556 0.0000
vt 0.6940 0.5128 0.0000
vt 0.6552 0.5714 0.0000
vt 0.9509 0.5749 0.0000
vt 0.8619 0.5714 0.0000
vt 0.8622 0.5231 0.0000
vt 0.7751 0.5611 0.0000
vt 0.7806 0.5095 0.0000
vt 0.6043 0.4967 0.0000
vt 0.6923 0.4720 0.0000
vt 0.9539 0.5142 0.0000
vt 0.8695 0.4806 0.0000
vt 0.7852 0.4586 0.0000
vt 0.5231 0.5490 0.0000
vt 0.5203 0.4973 0.0000
vt 0.6695 0.7448 0.0000
vt 0.5931 0.7672 0.0000
vt 0.9900 0.7485 0.0000
vt 0.8732 0.7465 0.0000
vt 0.7710 0.7423 0.0000
vt 0.4769 0.7145 0.0000
vt 0.6149 0.9105 0.0000
vt 0.5243 0.9071 0.0000
vt 0.6911 0.9382 0.0000
vt 0.7763 0.9627 0.0000
vt 0.9853 0.9675 0.0000
vt 0.8749 0.9770 0.0000
vt 0.4409 0.8996 0.0000
vt 0.3533 0.8894 0.0000
vt 0.6078 0.0316 0.0000
vt 0.7053 0.0367 0.0000
vt 0.7000 0.2410 0.0000
vt 0.6057 0.2359 0.0000
vt 0.8912 0.0388 0.0000
vt 0.9877 0.0423 0.0000
vt 0.9713 0.2465 0.0000
vt 0.8805 0.2460 0.0000
vt 0.7983 0.0359 0.0000
vt 0.7904 0.2419 0.0000
vt 0.5181 0.0278 0.0000
vt 0.5205 0.2314 0.0000
vt 0.6918 0.3708 0.0000
vt 0.5945 0.3672 0.0000
vt 0.9829 0.3801 0.0000
vt 0.8859 0.3787 0.0000
vt 0.7908 0.3731 0.0000
vt 0.4997 0.3670 0.0000
vt 0.1795 0.3990 0.0000
vt 0.1104 0.3958 0.0000
vt 0.1078 0.3571 0.0000
vt 0.1953 0.3623 0.0000
vt 0.2023 0.5522 0.0000
vt 0.2295 0.4910 0.0000
vt 0.2660 0.4988 0.0000
vt 0.2336 0.5745 0.0000
vt 0.2295 0.4298 0.0000
vt 0.2657 0.4108 0.0000
vt 0.0469 0.4092 0.0000
vt 0.0308 0.3727 0.0000
vt 0.1018 0.3014 0.0000
vt 0.1934 0.3043 0.0000
vt 0.3256 0.5330 0.0000
vt 0.2842 0.6123 0.0000
vt 0.3343 0.3711 0.0000
vt 0.3768 0.4357 0.0000
vt 0.3024 0.3029 0.0000
vt 0.0195 0.3085 0.0000
vt 0.0998 0.2238 0.0000
vt 0.1830 0.2251 0.0000
vt 0.3942 0.5721 0.0000
vt 0.3538 0.6488 0.0000
vt 0.0147 0.2286 0.0000
vt 0.2923 0.2236 0.0000
vt 0.4477 0.4748 0.0000
vt 0.4068 0.3281 0.0000
vt 0.4549 0.3798 0.0000
vt 0.3734 0.2735 0.0000
vt 0.3746 0.2204 0.0000
vt 0.0340 0.0366 0.0000
vt 0.1416 0.0203 0.0000
vt 0.1244 0.1710 0.0000
vt 0.0252 0.1409 0.0000
vt 0.2589 0.1984 0.0000
vt 0.2802 0.0169 0.0000
vt 0.3897 0.0304 0.0000
vt 0.3577 0.2142 0.0000
vt 0.4098 0.2646 0.0000
vt 0.4249 0.2866 0.0000
vt 0.4274 0.2319 0.0000
vt 0.4253 0.1676 0.0000
vt 0.4139 0.2094 0.0000
vt 0.4636 0.2646 0.0000
vt 0.4892 0.3889 0.0000
vt 0.2983 0.7021 0.0000
vt 0.3512 0.8128 0.0000
vt 0.3042 0.8152 0.0000
vt 0.2518 0.7344 0.0000
vt 0.1544 0.6595 0.0000
vt 0.1350 0.7138 0.0000
vt 0.3061 0.9328 0.0000
vt 0.2650 0.9067 0.0000
vt 0.1679 0.9867 0.0000
vt 0.0364 0.8960 0.0000
vt 0.0749 0.8649 0.0000
vt 0.1744 0.9342 0.0000
vt 0.0320 0.7421 0.0000
vt 0.0669 0.7813 0.0000
vt 0.1574 0.8353 0.0000
# 108 texture coords

o police_leftleg
g police_leftleg
usemtl Material__27
s 1
f 1/1/1 2/2/2 3/3/3 
f 4/4/4 5/5/5 6/6/6 
f 7/7/7 6/6/6 5/5/5 
f 6/6/6 7/7/7 8/8/8 
f 2/2/2 8/8/8 7/7/7 
f 7/7/7 3/3/3 2/2/2 
f 9/9/9 10/10/10 2/2/2 
f 2/2/2 1/1/1 9/9/9 
f 6/6/6 11/11/11 4/4/4 
f 11/11/11 6/6/6 12/12/12 
f 13/13/13 12/12/12 6/6/6 
f 6/6/6 8/8/8 13/13/13 
f 2/2/2 13/13/13 8/8/8 
f 13/13/13 2/2/2 10/10/10 
f 1/1/1 4/14/4 11/15/11 
f 11/15/11 9/9/9 1/1/1 
f 3/3/3 14/16/14 15/17/15 
f 15/17/15 1/1/1 3/3/3 
f 16/18/16 17/19/17 5/5/5 
f 5/5/5 4/4/4 16/18/16 
f 7/7/7 5/5/5 17/19/17 
f 17/19/17 18/20/18 7/7/7 
f 7/7/7 18/20/18 14/16/14 
f 14/16/14 3/3/3 7/7/7 
f 4/14/4 1/1/1 15/17/15 
f 15/17/15 16/21/16 4/14/4 
f 19/22/19 20/23/20 15/17/15 
f 15/17/15 14/16/14 19/22/19 
f 21/24/21 14/16/14 18/20/18 
f 18/20/18 22/25/22 21/24/21 
f 21/24/21 19/22/19 14/16/14 
f 23/26/23 24/27/24 17/19/17 
f 17/19/17 16/18/16 23/26/23 
f 25/28/25 23/29/23 16/21/16 
f 22/25/22 18/20/18 17/19/17 
f 17/19/17 24/27/24 22/25/22 
f 25/28/25 16/21/16 15/17/15 
f 15/17/15 20/23/20 25/28/25 
f 26/30/26 27/31/27 28/32/28 
f 28/32/28 29/33/29 26/30/26 
f 30/34/30 31/35/31 32/36/32 
f 32/36/32 33/37/33 30/34/30 
f 34/38/34 30/34/30 33/37/33 
f 33/37/33 35/39/35 34/38/34 
f 27/31/27 34/38/34 35/39/35 
f 35/39/35 28/32/28 27/31/27 
f 31/40/31 26/30/26 29/33/29 
f 29/33/29 32/41/32 31/40/31 
f 29/33/29 28/32/28 36/42/36 
f 36/42/36 37/43/37 29/33/29 
f 33/37/33 32/36/32 38/44/38 
f 38/44/38 39/45/39 33/37/33 
f 35/39/35 33/37/33 39/45/39 
f 39/45/39 40/46/40 35/39/35 
f 28/32/28 35/39/35 40/46/40 
f 40/46/40 36/42/36 28/32/28 
f 32/41/32 29/33/29 37/43/37 
f 37/43/37 38/47/38 32/41/32 
f 37/43/37 36/42/36 10/10/10 
f 10/10/10 9/9/9 37/43/37 
f 39/45/39 38/44/38 11/11/11 
f 11/11/11 12/12/12 39/45/39 
f 40/46/40 39/45/39 12/12/12 
f 12/12/12 13/13/13 40/46/40 
f 36/42/36 40/46/40 13/13/13 
f 13/13/13 10/10/10 36/42/36 
f 38/47/38 37/43/37 9/9/9 
f 9/9/9 11/15/11 38/47/38 
f 27/48/27 26/49/26 41/50/41 
f 41/50/41 42/51/42 27/48/27 
f 31/52/31 30/53/30 43/54/43 
f 43/54/43 44/55/44 31/52/31 
f 30/53/30 34/56/34 45/57/45 
f 45/57/45 43/54/43 30/53/30 
f 34/56/34 27/48/27 42/51/42 
f 42/51/42 45/57/45 34/56/34 
f 26/49/26 31/58/31 44/59/44 
f 44/59/44 41/50/41 26/49/26 
f 42/51/42 41/50/41 46/60/46 
f 46/60/46 47/61/47 42/51/42 
f 43/54/43 48/62/48 49/63/49 
f 49/63/49 44/55/44 43/54/43 
f 45/57/45 50/64/50 51/65/51 
f 51/65/51 43/54/43 45/57/45 
f 42/51/42 47/61/47 52/66/52 
f 41/50/41 44/59/44 49/67/49 
f 49/67/49 46/60/46 41/50/41 
f 47/61/47 46/60/46 53/68/53 
f 53/68/53 54/69/54 47/61/47 
f 48/62/48 55/70/55 56/71/56 
f 56/71/56 49/63/49 48/62/48 
f 46/60/46 49/67/49 56/72/56 
f 56/72/56 53/68/53 46/60/46 
f 43/54/43 51/65/51 48/62/48 
f 45/57/45 42/51/42 52/66/52 
f 52/66/52 50/64/50 45/57/45 
f 47/61/47 54/69/54 57/73/57 
f 57/73/57 52/66/52 47/61/47 
f 48/62/48 51/65/51 58/74/58 
f 58/74/58 55/70/55 48/62/48 
f 59/75/59 60/76/60 51/65/51 
f 51/65/51 50/64/50 59/75/59 
f 50/64/50 52/66/52 61/77/61 
f 61/77/61 59/75/59 50/64/50 
f 52/66/52 57/73/57 62/78/62 
f 62/78/62 61/77/61 52/66/52 
f 56/79/56 55/80/55 54/81/54 
f 54/81/54 53/82/53 56/79/56 
f 57/83/57 54/81/54 55/80/55 
f 55/80/55 58/84/58 57/83/57 
f 58/84/58 63/85/63 62/86/62 
f 62/86/62 57/83/57 58/84/58 
f 61/77/61 64/87/64 65/88/65 
f 65/88/65 59/75/59 61/77/61 
f 61/77/61 62/78/62 66/89/66 
f 66/89/66 64/87/64 61/77/61 
f 62/86/62 63/85/63 67/90/67 
f 67/90/67 66/91/66 62/86/62 
f 64/87/64 66/89/66 67/92/67 
f 67/92/67 65/88/65 64/87/64 
f 60/76/60 59/75/59 65/88/65 
f 58/74/58 51/65/51 60/76/60 
f 60/76/60 63/93/63 58/74/58 
f 67/92/67 63/93/63 60/76/60 
f 60/76/60 65/88/65 67/92/67 
f 19/94/19 21/95/21 68/96/68 
f 68/96/68 69/97/69 19/94/19 
f 20/98/20 19/94/19 69/97/69 
f 69/97/69 70/99/70 20/98/20 
f 21/95/21 22/100/22 71/101/71 
f 71/101/71 68/96/68 21/95/21 
f 24/102/24 23/103/23 72/104/72 
f 72/104/72 73/105/73 24/102/24 
f 23/103/23 25/106/25 74/107/74 
f 74/107/74 72/104/72 23/103/23 
f 22/100/22 24/102/24 73/105/73 
f 73/105/73 71/101/71 22/100/22 
f 25/106/25 20/98/20 70/99/70 
f 70/99/70 74/107/74 25/106/25 
f 69/97/69 68/96/68 75/108/75 
f 70/99/70 69/97/69 75/108/75 
f 68/96/68 71/101/71 75/108/75 
f 73/105/73 72/104/72 75/108/75 
f 72/104/72 74/107/74 75/108/75 
f 71/101/71 73/105/73 75/108/75 
f 74/107/74 70/99/70 75/108/75 
# 146 faces

