# 3ds Max Wavefront OBJ Exporter v0.99 - (c)2007 guruware
# File Created: 04.12.2023 21:16:34

mtllib police_rightleg.mtl

#
# object police_rightleg
#

v  -0.0794 -12.7497 4.8530
v  0.7251 -13.7214 8.0064
v  0.8776 -12.2768 6.2973
v  -2.4042 -12.4854 4.6639
v  -3.3426 -11.8176 7.2103
v  -3.4945 -13.2634 7.6216
v  -1.4301 -11.7798 9.2548
v  -1.6749 -13.5542 9.6343
v  -0.0376 -14.3688 5.1920
v  0.5851 -15.0672 7.8592
v  -2.6406 -14.1059 4.9561
v  -3.6340 -14.6105 7.4771
v  -1.8987 -15.2927 9.4605
v  1.9207 -7.0856 5.6222
v  1.3944 -6.8523 3.2644
v  -1.9728 -7.9903 1.6929
v  -3.1967 -6.7920 4.8788
v  -0.8136 -6.4050 6.8781
v  2.9451 -2.8478 2.3424
v  2.2682 -3.9235 -0.3245
v  2.4825 -1.2594 4.2530
v  -0.0061 -0.1456 4.1217
v  -2.0778 -1.7560 -0.9028
v  -2.3237 -0.1913 2.1152
v  -0.0046 -3.4080 -1.5810
v  -1.5856 -28.5713 4.4463
v  -0.8922 -28.5911 7.4182
v  -0.3323 -22.2832 7.4162
v  -0.9757 -22.2547 4.6574
v  -5.4065 -28.2047 7.0098
v  -4.3703 -28.3531 4.1950
v  -3.5572 -22.0117 4.4241
v  -4.5168 -21.8589 7.0372
v  -3.3195 -28.4383 9.0222
v  -2.5735 -22.1061 8.9053
v  0.4794 -18.2795 7.5053
v  -0.2736 -18.2365 4.4013
v  -3.2934 -17.9140 4.2012
v  -4.4149 -17.7210 7.0613
v  -2.2251 -18.0368 9.1288
v  -1.3310 -30.2408 4.0361
v  -0.5631 -30.2512 7.7252
v  -6.0096 -29.7694 7.0544
v  -4.7882 -29.9703 3.7247
v  -3.4807 -30.0502 9.7173
v  -1.2302 -32.7342 3.6009
v  -0.6738 -32.7341 7.6491
v  -6.2797 -32.7348 6.9168
v  -4.8838 -32.7329 3.2291
v  -3.7583 -31.9559 12.5123
v  -6.9616 -32.7355 11.7806
v  -0.5863 -32.7340 12.5144
v  -1.2548 -36.1890 3.6078
v  -0.8562 -36.1890 7.2254
v  -6.1703 -36.1890 6.8461
v  -4.9126 -36.1890 3.2363
v  -0.7824 -36.1889 12.0479
v  -7.1839 -36.1889 11.6113
v  -3.9965 -33.6447 15.8599
v  -7.1510 -34.5598 15.7051
v  -1.0281 -33.7884 15.7918
v  -0.8761 -36.1889 15.5610
v  -7.4265 -36.1889 15.4780
v  -1.3922 -34.3301 17.3713
v  -2.8748 -34.2249 17.5731
v  -1.4022 -36.1889 17.4682
v  -2.9213 -36.1889 17.5935
v  3.0863 0.7175 3.7454
v  3.6877 -1.3473 1.2618
v  2.8078 -2.7456 -2.2050
v  -0.1486 2.1653 3.5747
v  -2.4354 0.0719 -2.9567
v  -2.4249 2.1060 0.9664
v  -0.1467 -2.0755 -3.8383
v  0.4691 1.8209 -1.7731
# 75 vertices

vn 0.5252 -0.2909 -0.7998
vn 0.9133 0.0444 0.4049
vn 0.9737 -0.2278 0.0114
vn -0.5523 -0.2009 -0.8091
vn -0.9650 0.1508 0.2145
vn -0.9596 0.1295 0.2497
vn -0.0100 0.3118 0.9501
vn -0.1049 0.0627 0.9925
vn 0.6960 -0.0179 -0.7179
vn 0.9252 -0.1033 0.3651
vn -0.5635 0.1055 -0.8193
vn -0.9669 0.1341 0.2169
vn -0.1421 -0.0838 0.9863
vn 0.9071 -0.0450 0.4185
vn 0.7457 -0.4839 -0.4581
vn -0.3670 -0.5296 -0.7647
vn -0.9614 0.1576 0.2257
vn -0.1296 0.3841 0.9142
vn 0.9541 -0.2753 0.1178
vn 0.5977 -0.7189 -0.3550
vn 0.6204 0.1096 0.7766
vn -0.3005 0.3210 0.8981
vn -0.8995 -0.3111 -0.3068
vn -0.9011 0.2006 0.3844
vn -0.1951 -0.7449 -0.6380
vn 0.6500 0.1315 -0.7485
vn 0.9293 0.0945 0.3570
vn 0.9165 -0.1317 0.3778
vn 0.6490 -0.1012 -0.7541
vn -0.9411 0.2609 0.2152
vn -0.5073 0.2413 -0.8273
vn -0.5335 0.0402 -0.8449
vn -0.9707 0.0808 0.2265
vn -0.0755 0.2353 0.9690
vn -0.0838 -0.0106 0.9964
vn 0.9249 -0.1346 0.3556
vn 0.6359 -0.0189 -0.7715
vn -0.5178 0.1165 -0.8475
vn -0.9741 0.1137 0.1954
vn -0.1287 -0.0654 0.9895
vn 0.6633 0.2039 -0.7201
vn 0.9434 0.2648 0.1996
vn -0.9318 0.3606 0.0414
vn -0.5265 0.2532 -0.8116
vn -0.0398 0.7373 0.6744
vn 0.6754 0.0621 -0.7348
vn 0.9966 -0.0406 -0.0718
vn -0.9657 0.0502 -0.2546
vn -0.5136 0.0848 -0.8538
vn -0.0714 0.8706 0.4868
vn -0.8197 0.5378 0.1973
vn 0.8221 0.5036 0.2656
vn 0.5612 -0.5942 -0.5762
vn 0.7002 -0.7124 -0.0465
vn -0.6855 -0.7022 -0.1924
vn -0.4302 -0.5921 -0.6814
vn 0.6917 -0.7222 0.0021
vn -0.7402 -0.6683 -0.0741
vn -0.1462 0.8947 0.4220
vn -0.7270 0.4152 0.5470
vn 0.7068 0.6124 0.3540
vn 0.7262 -0.6758 0.1263
vn -0.7369 -0.5660 0.3697
vn 0.5749 0.4550 0.6800
vn -0.0919 0.5504 0.8298
vn 0.5155 -0.5811 0.6298
vn -0.1217 -0.6465 0.7531
vn 0.7029 0.4898 0.5157
vn 0.9966 0.0526 -0.0631
vn 0.7169 -0.3163 -0.6213
vn -0.1809 0.7625 0.6211
vn -0.7110 0.1978 -0.6748
vn -0.7073 0.6987 0.1077
vn -0.0847 -0.3166 -0.9448
vn 0.3039 0.7983 -0.5199
# 75 vertex normals

vt 0.4225 0.5401 0.4847
vt 0.5202 0.5148 0.4819
vt 0.5215 0.5588 0.4801
vt 0.3193 0.5391 0.4851
vt 0.2234 0.5588 0.4849
vt 0.2228 0.5148 0.4852
vt 0.1310 0.5729 0.4810
vt 0.1312 0.5148 0.4863
vt 0.0342 0.5148 0.4819
vt 0.0356 0.5588 0.4801
vt 0.4181 0.4894 0.4866
vt 0.5173 0.4718 0.4830
vt 0.3193 0.4879 0.4884
vt 0.2238 0.4718 0.4849
vt 0.1315 0.4632 0.4861
vt 0.0313 0.4718 0.4830
vt 0.5360 0.7285 0.4919
vt 0.4300 0.7285 0.5034
vt 0.3225 0.7285 0.4995
vt 0.2200 0.7285 0.4983
vt 0.1306 0.7286 0.4883
vt 0.0493 0.7285 0.4919
vt 0.5042 0.8869 0.4879
vt 0.4405 0.8952 0.5061
vt 0.0587 0.9095 0.5267
vt 0.1294 0.9337 0.4925
vt 0.5461 0.9095 0.5267
vt 0.2960 0.9506 0.4980
vt 0.2068 0.9506 0.4977
vt 0.3610 0.9218 0.5311
vt 0.4002 0.0483 0.4991
vt 0.5084 0.0483 0.5005
vt 0.5089 0.2453 0.4866
vt 0.4048 0.2453 0.4946
vt 0.2168 0.0483 0.4972
vt 0.3174 0.0483 0.4972
vt 0.3207 0.2452 0.4951
vt 0.2246 0.2452 0.4884
vt 0.1258 0.0483 0.5022
vt 0.1278 0.2454 0.4854
vt 0.0224 0.0483 0.5005
vt 0.0229 0.2453 0.4866
vt 0.5070 0.3719 0.4912
vt 0.4054 0.3718 0.5085
vt 0.3253 0.3718 0.5106
vt 0.2323 0.3719 0.4961
vt 0.1316 0.3719 0.4830
vt 0.0210 0.3719 0.4912
vt 0.7641 0.6501 0.0663
vt 0.7643 0.5335 0.0000
vt 0.8207 0.5340 0.2397
vt 0.8223 0.6534 0.0663
vt 0.7645 0.4274 0.0000
vt 0.7640 0.3189 0.0000
vt 0.8150 0.3144 0.1369
vt 0.8198 0.4230 0.2526
vt 0.7649 0.2089 0.0000
vt 0.8150 0.1997 0.0000
vt 0.7638 0.7884 0.0000
vt 0.8212 0.7925 0.0000
vt 0.8856 0.5409 0.5178
vt 0.8846 0.6498 0.5286
vt 0.8914 0.3252 0.5507
vt 0.8836 0.4253 0.5228
vt 0.6419 0.7781 0.5192
vt 0.6446 0.6849 0.5029
vt 0.7261 0.6903 0.4316
vt 0.7131 0.8428 0.4809
vt 0.8849 0.7478 0.5090
vt 0.9736 0.5416 0.4914
vt 0.9729 0.6387 0.5078
vt 0.9765 0.3265 0.5373
vt 0.9763 0.4289 0.4885
vt 0.8935 0.1735 0.5300
vt 0.5669 0.8430 0.4781
vt 0.5696 0.6900 0.4163
vt 0.9729 0.7355 0.4924
vt 0.9757 0.1766 0.5326
vt 0.6417 0.5718 0.5354
vt 0.7161 0.5716 0.4346
vt 0.5664 0.5901 0.5091
vt 0.9729 0.8493 0.5209
vt 0.9038 0.8556 0.5126
vt 0.6949 0.0926 0.5000
vt 0.7200 0.1881 0.5000
vt 0.5791 0.1869 0.5000
vt 0.5879 0.0938 0.5000
vt 0.5755 0.3004 0.5000
vt 0.7265 0.3062 0.5000
vt 0.7191 0.4123 0.5000
vt 0.5664 0.3890 0.5000
vt 0.5750 0.5428 0.5440
vt 0.6106 0.5413 0.5884
vt 0.9728 0.9146 0.4815
vt 0.9228 0.9120 0.4829
vt 0.6138 0.4584 0.5000
vt 0.5781 0.4523 0.5000
vt 0.5767 0.4951 0.5746
vt 0.6123 0.4955 0.6383
vt 0.9300 0.0903 0.4658
vt 0.9741 0.0947 0.4807
vt 0.7197 0.4972 0.4021
vt 0.3924 0.9191 0.5079
vt 0.0940 0.9216 0.5096
# 104 texture coords

o police_rightleg
g police_rightleg
usemtl 24___Default
s 1
f 3/3/3 2/2/2 1/1/1 
f 6/6/6 5/5/5 4/4/4 
f 5/5/5 6/6/6 7/7/7 
f 8/8/8 7/7/7 6/6/6 
f 7/7/7 8/8/8 2/9/2 
f 2/9/2 3/10/3 7/7/7 
f 2/2/2 10/12/10 9/11/9 
f 9/11/9 1/1/1 2/2/2 
f 4/4/4 11/13/11 6/6/6 
f 12/14/12 6/6/6 11/13/11 
f 6/6/6 12/14/12 13/15/13 
f 13/15/13 8/8/8 6/6/6 
f 8/8/8 13/15/13 2/9/2 
f 10/16/10 2/9/2 13/15/13 
f 11/13/11 4/4/4 1/1/1 
f 1/1/1 9/11/9 11/13/11 
f 15/18/15 14/17/14 3/3/3 
f 3/3/3 1/1/1 15/18/15 
f 5/5/5 17/20/17 16/19/16 
f 16/19/16 4/4/4 5/5/5 
f 17/20/17 5/5/5 7/7/7 
f 7/7/7 18/21/18 17/20/17 
f 14/22/14 18/21/18 7/7/7 
f 7/7/7 3/10/3 14/22/14 
f 15/18/15 1/1/1 4/4/4 
f 4/4/4 16/19/16 15/18/15 
f 15/18/15 20/24/20 19/23/19 
f 19/23/19 14/17/14 15/18/15 
f 18/21/18 14/22/14 21/25/21 
f 21/25/21 22/26/22 18/21/18 
f 14/17/14 19/23/19 21/27/21 
f 17/20/17 24/29/24 23/28/23 
f 23/28/23 16/19/16 17/20/17 
f 16/19/16 23/28/23 25/30/25 
f 17/20/17 18/21/18 22/26/22 
f 22/26/22 24/29/24 17/20/17 
f 15/18/15 16/19/16 25/30/25 
f 25/30/25 20/24/20 15/18/15 
f 28/33/28 27/32/27 26/31/26 
f 26/31/26 29/34/29 28/33/28 
f 32/37/32 31/36/31 30/35/30 
f 30/35/30 33/38/33 32/37/32 
f 33/38/33 30/35/30 34/39/34 
f 34/39/34 35/40/35 33/38/33 
f 35/40/35 34/39/34 27/41/27 
f 27/41/27 28/42/28 35/40/35 
f 29/34/29 26/31/26 31/36/31 
f 31/36/31 32/37/32 29/34/29 
f 36/43/36 28/33/28 29/34/29 
f 29/34/29 37/44/37 36/43/36 
f 38/45/38 32/37/32 33/38/33 
f 33/38/33 39/46/39 38/45/38 
f 39/46/39 33/38/33 35/40/35 
f 35/40/35 40/47/40 39/46/39 
f 40/47/40 35/40/35 28/42/28 
f 28/42/28 36/48/36 40/47/40 
f 37/44/37 29/34/29 32/37/32 
f 32/37/32 38/45/38 37/44/37 
f 10/12/10 36/43/36 37/44/37 
f 37/44/37 9/11/9 10/12/10 
f 11/13/11 38/45/38 39/46/39 
f 39/46/39 12/14/12 11/13/11 
f 12/14/12 39/46/39 40/47/40 
f 40/47/40 13/15/13 12/14/12 
f 13/15/13 40/47/40 36/48/36 
f 36/48/36 10/16/10 13/15/13 
f 9/11/9 37/44/37 38/45/38 
f 38/45/38 11/13/11 9/11/9 
f 41/51/41 26/50/26 27/49/27 
f 27/49/27 42/52/42 41/51/41 
f 43/55/43 30/54/30 31/53/31 
f 31/53/31 44/56/44 43/55/43 
f 45/58/45 34/57/34 30/54/30 
f 30/54/30 43/55/43 45/58/45 
f 42/52/42 27/49/27 34/59/34 
f 34/59/34 45/60/45 42/52/42 
f 44/56/44 31/53/31 26/50/26 
f 26/50/26 41/51/41 44/56/44 
f 46/61/46 41/51/41 42/52/42 
f 42/52/42 47/62/47 46/61/46 
f 49/64/49 48/63/48 43/55/43 
f 43/55/43 44/56/44 49/64/49 
f 51/67/51 50/66/50 45/65/45 
f 45/65/45 43/68/43 51/67/51 
f 52/69/52 47/62/47 42/52/42 
f 49/64/49 44/56/44 41/51/41 
f 41/51/41 46/61/46 49/64/49 
f 53/70/53 46/61/46 47/62/47 
f 47/62/47 54/71/54 53/70/53 
f 56/73/56 55/72/55 48/63/48 
f 48/63/48 49/64/49 56/73/56 
f 56/73/56 49/64/49 46/61/46 
f 46/61/46 53/70/53 56/73/56 
f 48/63/48 51/74/51 43/55/43 
f 52/76/52 42/75/42 45/65/45 
f 45/65/45 50/66/50 52/76/52 
f 57/77/57 54/71/54 47/62/47 
f 47/62/47 52/69/52 57/77/57 
f 58/78/58 51/74/51 48/63/48 
f 48/63/48 55/72/55 58/78/58 
f 51/67/51 60/80/60 59/79/59 
f 59/79/59 50/66/50 51/67/51 
f 61/81/61 52/76/52 50/66/50 
f 50/66/50 59/79/59 61/81/61 
f 62/82/62 57/77/57 52/69/52 
f 52/69/52 61/83/61 62/82/62 
f 54/86/54 55/85/55 56/84/56 
f 56/84/56 53/87/53 54/86/54 
f 55/85/55 54/86/54 57/88/57 
f 57/88/57 58/89/58 55/85/55 
f 62/91/62 63/90/63 58/89/58 
f 58/89/58 57/88/57 62/91/62 
f 65/93/65 64/92/64 61/81/61 
f 61/81/61 59/79/59 65/93/65 
f 66/94/66 62/82/62 61/83/61 
f 61/83/61 64/95/64 66/94/66 
f 67/96/67 63/90/63 62/91/62 
f 62/91/62 66/97/66 67/96/67 
f 67/99/67 66/98/66 64/92/64 
f 64/92/64 65/93/65 67/99/67 
f 65/93/65 59/79/59 60/80/60 
f 60/100/60 51/74/51 58/78/58 
f 58/78/58 63/101/63 60/100/60 
f 60/80/60 63/102/63 67/99/67 
f 67/99/67 65/93/65 60/80/60 
f 68/27/68 21/27/21 19/23/19 
f 19/23/19 69/23/69 68/27/68 
f 69/23/69 19/23/19 20/24/20 
f 20/24/20 70/24/70 69/23/69 
f 71/26/71 22/26/22 21/25/21 
f 21/25/21 68/25/68 71/26/71 
f 72/28/72 23/28/23 24/29/24 
f 24/29/24 73/29/73 72/28/72 
f 74/30/74 25/30/25 23/28/23 
f 23/28/23 72/28/72 74/30/74 
f 73/29/73 24/29/24 22/26/22 
f 22/26/22 71/26/71 73/29/73 
f 70/24/70 20/24/20 25/30/25 
f 25/30/25 74/30/74 70/24/70 
f 75/103/75 68/27/68 69/23/69 
f 75/103/75 69/23/69 70/24/70 
f 75/104/75 71/26/71 68/25/68 
f 75/103/75 72/28/72 73/29/73 
f 75/103/75 74/30/74 72/28/72 
f 75/104/75 73/29/73 71/26/71 
f 75/103/75 70/24/70 74/30/74 
# 146 faces

