# 3ds Max Wavefront OBJ Exporter v0.99 - (c)2007 guruware
# File Created: 17.11.2023 14:31:16

mtllib ?? ????\body.mtl

#
# object _spine
#

v  1.8823 6.1037 2.8270
v  1.7935 7.0999 3.0279
v  0.0000 7.0985 3.1226
v  0.0000 6.1037 2.9735
v  3.2718 6.9570 2.3592
v  3.3637 6.1040 1.8191
v  3.8850 6.7803 1.6762
v  3.9919 6.1028 0.3112
v  4.1418 7.0879 0.6755
v  0.0000 11.6714 -3.4383
v  1.8293 11.7584 -3.1222
v  2.1364 8.7767 -3.7670
v  0.0000 8.7767 -3.8920
v  3.4357 11.8551 -2.5355
v  4.0277 8.7765 -3.4699
v  3.3070 11.7529 -0.1565
v  4.5639 10.9155 -0.3580
v  4.6166 10.9962 -2.2888
v  3.2781 9.2301 1.7614
v  4.1588 8.8873 1.1986
v  5.0278 8.4626 0.4619
v  5.6309 9.4340 -0.6572
v  5.6353 9.5215 -1.9124
v  5.0345 8.3133 -2.9253
v  1.6508 11.5316 0.7324
v  1.7168 9.4910 2.2061
v  0.0000 11.3717 1.2081
v  0.0000 9.4908 2.3249
v  2.1052 6.1116 -3.3468
v  0.0000 6.1079 -3.5009
v  4.0165 6.1128 -2.4631
v  4.3507 7.0447 -0.2717
v  4.3099 7.1346 -2.0788
v  -1.7935 7.0999 3.0279
v  -1.8823 6.1037 2.8270
v  -3.3637 6.1040 1.8191
v  -3.2718 6.9570 2.3592
v  -3.8850 6.7803 1.6762
v  -4.1418 7.0879 0.6755
v  -3.9919 6.1028 0.3112
v  -2.1364 8.7767 -3.7670
v  -1.8285 11.7569 -3.1116
v  -4.0277 8.7765 -3.4699
v  -3.4298 11.8448 -2.5224
v  -4.5628 10.9137 -0.3599
v  -3.3018 11.7440 -0.1669
v  -4.6155 10.9941 -2.2864
v  -4.1588 8.8873 1.1986
v  -3.2781 9.2301 1.7614
v  -5.6309 9.4339 -0.6575
v  -5.0285 8.4639 0.4591
v  -5.0354 8.3148 -2.9225
v  -5.6352 9.5213 -1.9120
v  -1.7168 9.4910 2.2061
v  -1.6507 11.5315 0.7217
v  -2.1052 6.1116 -3.3468
v  -4.0165 6.1128 -2.4631
v  -4.3507 7.0447 -0.2717
v  -4.3099 7.1346 -2.0788
v  0.0000 16.8065 0.2172
v  0.0000 12.7656 0.2473
v  0.9363 12.8017 -0.1654
v  0.9828 16.9115 -0.2416
v  1.5090 12.8971 -1.2562
v  1.1776 13.0082 -2.5263
v  1.0390 17.0666 -1.5899
v  0.0000 17.0714 -2.0565
v  0.0000 13.0414 -2.9059
v  -0.9363 12.8017 -0.1654
v  -0.9828 16.9115 -0.2416
v  -1.1776 13.0082 -2.5263
v  -1.5090 12.8971 -1.2562
v  -1.0390 17.0666 -1.5899
v  2.1942 2.3983 2.2661
v  0.0000 2.3984 2.8560
v  0.0000 -0.5776 3.2336
v  2.5215 -0.5773 2.6520
v  4.3909 -0.5765 0.9582
v  3.6909 2.3981 0.7490
v  0.0000 2.3981 -3.3071
v  2.0443 2.3982 -3.1681
v  2.4923 -0.5757 -3.5147
v  0.0000 -0.5761 -3.6424
v  3.6275 2.3982 -1.8013
v  4.4386 -0.5763 -1.8408
v  0.0000 -3.3883 3.8299
v  3.1231 -3.3882 3.2210
v  5.5454 -3.3877 1.6478
v  5.4925 -3.3878 -2.0396
v  3.0136 -3.3876 -4.0518
v  0.0000 -3.3876 -4.1679
v  -2.1942 2.3983 2.2661
v  -2.5215 -0.5773 2.6520
v  -4.3909 -0.5765 0.9582
v  -3.6909 2.3981 0.7490
v  -2.4923 -0.5757 -3.5147
v  -2.0443 2.3982 -3.1681
v  -4.4386 -0.5763 -1.8408
v  -3.6275 2.3982 -1.8013
v  -3.1231 -3.3882 3.2210
v  -5.5454 -3.3877 1.6478
v  -5.4925 -3.3878 -2.0396
v  -3.0136 -3.3876 -4.0518
v  0.0000 -7.1764 3.8923
v  1.8120 -7.1401 3.7458
v  3.8126 -6.0133 3.5325
v  6.0833 -5.2579 1.8310
v  3.3275 -5.2580 -4.4699
v  0.0000 -5.2580 -4.5056
v  6.0365 -5.2580 -2.0002
v  0.8459 -9.3876 2.9014
v  1.6596 -9.8140 2.8886
v  0.0000 -9.2642 2.9494
v  0.7072 -10.1544 0.4475
v  1.1970 -10.2807 0.4482
v  0.8097 -9.8195 -2.2360
v  1.8738 -9.9328 -2.4063
v  3.4364 -7.7034 -4.1852
v  4.1467 -8.8741 -3.2569
v  0.0000 -7.8477 -4.2226
v  6.2198 -7.7560 -1.8646
v  4.1481 -8.7756 3.3122
v  0.0000 -10.1193 0.4471
v  0.0000 -9.8012 -2.1818
v  6.4657 -7.8454 1.5337
v  -1.8124 -7.1401 3.7446
v  -6.0829 -5.2580 1.8307
v  -3.8125 -6.0134 3.5314
v  -3.3275 -5.2580 -4.4700
v  -6.0361 -5.2580 -2.0000
v  -1.6608 -9.8138 2.8867
v  -0.8467 -9.3875 2.9004
v  -1.1985 -10.2805 0.4477
v  -0.7081 -10.1542 0.4473
v  -1.8749 -9.9327 -2.4052
v  -0.8105 -9.8194 -2.2355
v  -4.1464 -8.8742 -3.2553
v  -3.4364 -7.7034 -4.1842
v  -6.2183 -7.7562 -1.8637
v  -4.1478 -8.7756 3.3101
v  -6.4641 -7.8456 1.5326
# 141 vertices

vn 0.3073 -0.1463 0.9403
vn 0.2195 0.0671 0.9733
vn 0.0000 0.0786 0.9969
vn 0.0000 -0.0903 0.9959
vn 0.5736 -0.0821 0.8150
vn 0.7255 -0.2771 0.6300
vn 0.8482 -0.2339 0.4753
vn 0.9653 -0.1937 0.1750
vn 0.9251 -0.2554 0.2812
vn -0.0022 0.2774 -0.9607
vn 0.2240 0.3748 -0.8996
vn 0.1166 0.0238 -0.9929
vn 0.0000 0.0016 -1.0000
vn 0.5029 0.7096 -0.4935
vn 0.3852 -0.0016 -0.9228
vn 0.4738 0.7598 0.4453
vn 0.6753 0.6289 0.3852
vn 0.6820 0.5975 -0.4218
vn 0.4537 0.3887 0.8019
vn 0.6814 0.1947 0.7056
vn 0.8549 -0.1617 0.4930
vn 0.9690 0.0487 0.2421
vn 0.9630 0.0993 -0.2507
vn 0.7068 -0.3564 -0.6111
vn 0.2591 0.6006 0.7564
vn 0.1992 0.4455 0.8728
vn -0.0019 0.5636 0.8260
vn 0.0000 0.4172 0.9088
vn 0.2215 -0.1323 -0.9662
vn 0.0000 -0.0979 -0.9952
vn 0.8289 -0.2184 -0.5149
vn 0.9238 -0.3778 0.0620
vn 0.9168 -0.3486 -0.1950
vn -0.2195 0.0671 0.9733
vn -0.3073 -0.1463 0.9403
vn -0.7255 -0.2771 0.6300
vn -0.5736 -0.0821 0.8150
vn -0.8482 -0.2339 0.4753
vn -0.9251 -0.2551 0.2811
vn -0.9653 -0.1937 0.1750
vn -0.1170 0.0251 -0.9928
vn -0.2281 0.3751 -0.8985
vn -0.3855 -0.0002 -0.9227
vn -0.5026 0.7110 -0.4917
vn -0.6725 0.6318 0.3855
vn -0.4734 0.7608 0.4439
vn -0.6781 0.6009 -0.4233
vn -0.6818 0.1950 0.7051
vn -0.4535 0.3902 0.8013
vn -0.9613 0.0956 0.2582
vn -0.8419 -0.1528 0.5175
vn -0.6934 -0.3450 -0.6326
vn -0.9558 0.1304 -0.2634
vn -0.1996 0.4465 0.8722
vn -0.2624 0.6009 0.7550
vn -0.2215 -0.1323 -0.9662
vn -0.8289 -0.2184 -0.5149
vn -0.9125 -0.4013 0.0789
vn -0.9011 -0.3763 -0.2153
vn 0.0000 0.0124 0.9999
vn -0.0009 0.3738 0.9275
vn 0.5277 0.4538 0.7181
vn 0.8297 0.0662 0.5543
vn 0.7872 0.6032 0.1286
vn 0.5426 0.5044 -0.6717
vn 0.8449 0.1926 -0.4990
vn -0.0000 0.2330 -0.9725
vn -0.0009 0.3320 -0.9433
vn -0.5291 0.4512 0.7187
vn -0.8297 0.0662 0.5543
vn -0.5442 0.5008 -0.6731
vn -0.7890 0.6008 0.1287
vn -0.8449 0.1926 -0.4990
vn 0.4898 0.0217 0.8716
vn -0.0000 0.0138 0.9999
vn 0.0000 0.1757 0.9844
vn 0.4240 0.2291 0.8762
vn 0.8633 0.3422 0.3711
vn 0.9287 0.0662 0.3648
vn 0.0000 0.0340 -0.9994
vn 0.3498 0.0283 -0.9364
vn 0.3595 0.2039 -0.9106
vn -0.0000 0.1513 -0.9885
vn 0.9061 0.0365 -0.4214
vn 0.8657 0.3053 -0.3966
vn -0.0000 0.1191 0.9929
vn 0.3417 0.2029 0.9176
vn 0.8312 0.3332 0.4450
vn 0.8578 0.2866 -0.4267
vn 0.3488 0.2354 -0.9071
vn -0.0000 0.1807 -0.9835
vn -0.4898 0.0217 0.8716
vn -0.4240 0.2291 0.8762
vn -0.8633 0.3422 0.3711
vn -0.9287 0.0662 0.3648
vn -0.3595 0.2039 -0.9106
vn -0.3498 0.0283 -0.9364
vn -0.8657 0.3053 -0.3966
vn -0.9061 0.0365 -0.4214
vn -0.3418 0.2028 0.9176
vn -0.8313 0.3331 0.4450
vn -0.8578 0.2865 -0.4267
vn -0.3489 0.2354 -0.9071
vn -0.0002 -0.1775 0.9841
vn 0.0529 -0.1042 0.9932
vn 0.3403 0.0874 0.9362
vn 0.8640 0.1891 0.4665
vn 0.3629 0.0821 -0.9282
vn -0.0000 0.0412 -0.9991
vn 0.8935 0.1515 -0.4228
vn -0.1804 -0.6698 0.7203
vn -0.2481 -0.5911 0.7675
vn -0.0004 -0.7000 0.7142
vn -0.1537 -0.9858 0.0675
vn -0.2497 -0.9680 0.0231
vn -0.1122 -0.9034 -0.4139
vn -0.0876 -0.8138 -0.5746
vn 0.3036 -0.3020 -0.9037
vn 0.3557 -0.4386 -0.8253
vn -0.0002 -0.4190 -0.9080
vn 0.8759 0.0076 -0.4824
vn 0.2984 -0.1169 0.9472
vn -0.0001 -0.9954 0.0953
vn -0.0002 -0.9074 -0.4204
vn 0.8985 0.0654 0.4341
vn -0.0534 -0.1045 0.9931
vn -0.8641 0.1888 0.4666
vn -0.3404 0.0871 0.9362
vn -0.3629 0.0819 -0.9282
vn -0.8935 0.1512 -0.4228
vn 0.2475 -0.5915 0.7674
vn 0.1794 -0.6701 0.7203
vn 0.2493 -0.9682 0.0230
vn 0.1534 -0.9859 0.0675
vn 0.0873 -0.8139 -0.5744
vn 0.1118 -0.9034 -0.4139
vn -0.3558 -0.4389 -0.8251
vn -0.3038 -0.3022 -0.9035
vn -0.8760 0.0071 -0.4823
vn -0.2985 -0.1173 0.9472
vn -0.8986 0.0649 0.4340
# 141 vertex normals

vt 0.3839 0.5929 0.4690
vt 0.3812 0.6180 0.7800
vt 0.3263 0.6188 0.4879
vt 0.3263 0.5929 0.4098
vt 0.4250 0.6177 0.8045
vt 0.4347 0.5931 0.4798
vt 0.4430 0.6144 0.5711
vt 0.5052 0.5923 0.4266
vt 0.4951 0.6189 0.4184
vt 0.7887 0.7625 0.5144
vt 0.7316 0.7625 0.4986
vt 0.7280 0.6648 0.5219
vt 0.7887 0.6648 0.5312
vt 0.6789 0.7625 0.5079
vt 0.6777 0.6648 0.5473
vt 0.5969 0.7625 0.5304
vt 0.5250 0.7625 0.5418
vt 0.5304 0.7357 0.4852
vt 0.5919 0.7357 0.4886
vt 0.4287 0.6744 0.5279
vt 0.4657 0.6648 0.4688
vt 0.4966 0.7357 0.5193
vt 0.4434 0.7625 0.4446
vt 0.5021 0.6519 0.5427
vt 0.5387 0.6837 0.6676
vt 0.6457 0.7357 0.5223
vt 0.5799 0.6866 0.6697
vt 0.6047 0.6470 0.5471
vt 0.6314 0.6648 0.3415
vt 0.3807 0.7562 0.4516
vt 0.3782 0.6798 0.4850
vt 0.3263 0.7477 0.4053
vt 0.3263 0.6797 0.3920
vt 0.7258 0.5923 0.5018
vt 0.7887 0.5923 0.5167
vt 0.6633 0.5923 0.5010
vt 0.5262 0.6199 0.4033
vt 0.5856 0.6228 0.3966
vt 0.5991 0.5923 0.4028
vt 0.2715 0.6180 0.7800
vt 0.2688 0.5929 0.4690
vt 0.2180 0.5931 0.4798
vt 0.2277 0.6177 0.8045
vt 0.2097 0.6144 0.5711
vt 0.1576 0.6189 0.4184
vt 0.1475 0.5923 0.4266
vt 0.8494 0.6648 0.5219
vt 0.8458 0.7625 0.4986
vt 0.8997 0.6648 0.5473
vt 0.8985 0.7625 0.5079
vt 0.1223 0.7357 0.4852
vt 0.1277 0.7625 0.5418
vt 0.0558 0.7625 0.5304
vt 0.0608 0.7357 0.4886
vt 0.1561 0.7357 0.5193
vt 0.1870 0.6648 0.4688
vt 0.2239 0.6744 0.5279
vt 0.2093 0.7625 0.4446
vt 0.1140 0.6837 0.6676
vt 0.1506 0.6519 0.5427
vt 0.9317 0.7357 0.5223
vt 0.0480 0.6470 0.5471
vt 0.0728 0.6866 0.6697
vt 0.0213 0.6648 0.3415
vt 0.2745 0.6798 0.4850
vt 0.2720 0.7562 0.4516
vt 0.8516 0.5923 0.5018
vt 0.9141 0.5923 0.5010
vt 0.1265 0.6199 0.4033
vt 0.0536 0.5923 0.4028
vt 0.0671 0.6228 0.3966
vt 0.3263 0.9253 0.5510
vt 0.3263 0.8165 0.2620
vt 0.3668 0.8159 0.2577
vt 0.3693 0.9253 0.5474
vt 0.5563 0.8159 0.5380
vt 0.5937 0.8159 0.4649
vt 0.5745 0.9253 0.4874
vt 0.7887 0.9253 0.4633
vt 0.7586 0.9253 0.4460
vt 0.7451 0.8159 0.4715
vt 0.7887 0.8185 0.4947
vt 0.5342 0.9253 0.5021
vt 0.5221 0.8159 0.4501
vt 0.2859 0.8159 0.2577
vt 0.2834 0.9253 0.5474
vt 0.0590 0.8159 0.4649
vt 0.0964 0.8159 0.5380
vt 0.0782 0.9253 0.4874
vt 0.8323 0.8159 0.4715
vt 0.8188 0.9253 0.4460
vt 0.1185 0.9253 0.5021
vt 0.1306 0.8159 0.4501
vt 0.2548 0.8347 0.2040
vt 0.3955 0.4838 0.4774
vt 0.3263 0.4838 0.4651
vt 0.3263 0.3991 0.4519
vt 0.4015 0.3991 0.4760
vt 0.4837 0.3991 0.4656
vt 0.4792 0.4838 0.5078
vt 0.7887 0.4839 0.4987
vt 0.7240 0.4839 0.4778
vt 0.7145 0.3992 0.4920
vt 0.7887 0.3992 0.5119
vt 0.6592 0.4839 0.4452
vt 0.6398 0.3992 0.4562
vt 0.5666 0.4839 0.4299
vt 0.5681 0.3991 0.4574
vt 0.3263 0.3182 0.4395
vt 0.4150 0.3182 0.4770
vt 0.4872 0.3184 0.5147
vt 0.6200 0.3185 0.4884
vt 0.7062 0.3185 0.5237
vt 0.5807 0.3184 0.4991
vt 0.7887 0.3185 0.5415
vt 0.2572 0.4838 0.4774
vt 0.2512 0.3991 0.4760
vt 0.1690 0.3991 0.4656
vt 0.1735 0.4838 0.5078
vt 0.8629 0.3992 0.4920
vt 0.8534 0.4839 0.4778
vt 0.9376 0.3992 0.4562
vt 0.9182 0.4839 0.4452
vt 0.0861 0.4839 0.4299
vt 0.0846 0.3991 0.4574
vt 0.2377 0.3182 0.4770
vt 0.1655 0.3184 0.5147
vt 0.9573 0.3185 0.4884
vt 0.8712 0.3185 0.5237
vt 0.0720 0.3184 0.4991
vt 0.3263 0.2082 0.4372
vt 0.3773 0.2107 0.5040
vt 0.4280 0.2426 0.5297
vt 0.4863 0.2660 0.5338
vt 0.7006 0.2660 0.5399
vt 0.7887 0.2660 0.5540
vt 0.6082 0.2660 0.4995
vt 0.5841 0.2660 0.5184
vt 0.3504 0.1465 0.4844
vt 0.3733 0.1362 0.4937
vt 0.3263 0.1499 0.4973
vt 0.3472 0.0731 0.5076
vt 0.3616 0.0717 0.5118
vt 0.7653 0.0728 0.4822
vt 0.7633 0.1312 0.4802
vt 0.7255 0.1320 0.4674
vt 0.7489 0.0711 0.5033
vt 0.6956 0.1942 0.5267
vt 0.6715 0.1616 0.4882
vt 0.7887 0.1896 0.5435
vt 0.5992 0.1961 0.4844
vt 0.4336 0.1671 0.5232
vt 0.3263 0.0743 0.5485
vt 0.7887 0.1319 0.4894
vt 0.7887 0.0742 0.4961
vt 0.4951 0.1952 0.5290
vt 0.5757 0.1963 0.5152
vt 0.2754 0.2107 0.5040
vt 0.1664 0.2660 0.5338
vt 0.2247 0.2426 0.5297
vt 0.8767 0.2660 0.5399
vt 0.9692 0.2660 0.4995
vt 0.0686 0.2660 0.5184
vt 0.2794 0.1362 0.4937
vt 0.3023 0.1465 0.4844
vt 0.2911 0.0717 0.5118
vt 0.3055 0.0731 0.5076
vt 0.8519 0.1320 0.4674
vt 0.8141 0.1312 0.4802
vt 0.8121 0.0728 0.4822
vt 0.8285 0.0711 0.5033
vt 0.9059 0.1616 0.4882
vt 0.8818 0.1942 0.5267
vt 0.9781 0.1961 0.4844
vt 0.2191 0.1671 0.5232
vt 0.1576 0.1952 0.5290
vt 0.0770 0.1963 0.5152
# 177 texture coords

o _spine
g _spine
usemtl 24___Default
s 1
f 1/1/1 2/2/2 3/3/3 
f 3/3/3 4/4/4 1/1/1 
f 5/5/5 6/6/6 7/7/7 
f 5/5/5 2/2/2 1/1/1 
f 1/1/1 6/6/6 5/5/5 
f 8/8/8 9/9/9 7/7/7 
f 7/7/7 6/6/6 8/8/8 
f 10/10/10 11/11/11 12/12/12 
f 12/12/12 13/13/13 10/10/10 
f 11/11/11 14/14/14 15/15/15 
f 15/15/15 12/12/12 11/11/11 
f 14/16/14 16/17/16 17/18/17 
f 17/18/17 18/19/18 14/16/14 
f 19/20/19 20/21/20 17/22/17 
f 17/22/17 16/23/16 19/20/19 
f 21/24/21 22/25/22 17/18/17 
f 17/18/17 20/21/20 21/24/21 
f 14/14/14 18/26/18 15/15/15 
f 18/19/18 23/27/23 24/28/24 
f 24/28/24 15/29/15 18/19/18 
f 18/19/18 17/18/17 22/25/22 
f 22/25/22 23/27/23 18/19/18 
f 25/30/25 26/31/26 19/20/19 
f 19/20/19 16/23/16 25/30/25 
f 26/31/26 25/30/25 27/32/27 
f 27/32/27 28/33/28 26/31/26 
f 13/13/13 12/12/12 29/34/29 
f 29/34/29 30/35/30 13/13/13 
f 15/15/15 31/36/31 29/34/29 
f 29/34/29 12/12/12 15/15/15 
f 32/37/32 9/9/9 8/8/8 
f 33/38/33 31/39/31 15/29/15 
f 15/29/15 24/28/24 33/38/33 
f 20/21/20 7/7/7 9/9/9 
f 9/9/9 21/24/21 20/21/20 
f 31/39/31 33/38/33 32/37/32 
f 32/37/32 8/8/8 31/39/31 
f 21/24/21 9/9/9 32/37/32 
f 20/21/20 19/20/19 5/5/5 
f 5/5/5 7/7/7 20/21/20 
f 19/20/19 26/31/26 2/2/2 
f 2/2/2 5/5/5 19/20/19 
f 28/33/28 3/3/3 2/2/2 
f 2/2/2 26/31/26 28/33/28 
f 3/3/3 34/40/34 35/41/35 
f 35/41/35 4/4/4 3/3/3 
f 36/42/36 37/43/37 38/44/38 
f 35/41/35 34/40/34 37/43/37 
f 37/43/37 36/42/36 35/41/35 
f 38/44/38 39/45/39 40/46/40 
f 40/46/40 36/42/36 38/44/38 
f 41/47/41 42/48/42 10/10/10 
f 10/10/10 13/13/13 41/47/41 
f 43/49/43 44/50/44 42/48/42 
f 42/48/42 41/47/41 43/49/43 
f 45/51/45 46/52/46 44/53/44 
f 44/53/44 47/54/47 45/51/45 
f 45/55/45 48/56/48 49/57/49 
f 49/57/49 46/58/46 45/55/45 
f 45/51/45 50/59/50 51/60/51 
f 51/60/51 48/56/48 45/51/45 
f 47/61/47 44/50/44 43/49/43 
f 52/62/52 53/63/53 47/54/47 
f 47/54/47 43/64/43 52/62/52 
f 50/59/50 45/51/45 47/54/47 
f 47/54/47 53/63/53 50/59/50 
f 49/57/49 54/65/54 55/66/55 
f 55/66/55 46/58/46 49/57/49 
f 27/32/27 55/66/55 54/65/54 
f 54/65/54 28/33/28 27/32/27 
f 56/67/56 41/47/41 13/13/13 
f 13/13/13 30/35/30 56/67/56 
f 56/67/56 57/68/57 43/49/43 
f 43/49/43 41/47/41 56/67/56 
f 39/45/39 58/69/58 40/46/40 
f 43/64/43 57/70/57 59/71/59 
f 59/71/59 52/62/52 43/64/43 
f 39/45/39 38/44/38 48/56/48 
f 48/56/48 51/60/51 39/45/39 
f 58/69/58 59/71/59 57/70/57 
f 57/70/57 40/46/40 58/69/58 
f 39/45/39 51/60/51 58/69/58 
f 37/43/37 49/57/49 48/56/48 
f 48/56/48 38/44/38 37/43/37 
f 34/40/34 54/65/54 49/57/49 
f 49/57/49 37/43/37 34/40/34 
f 34/40/34 3/3/3 28/33/28 
f 28/33/28 54/65/54 34/40/34 
f 60/72/60 61/73/61 62/74/62 
f 62/74/62 63/75/63 60/72/60 
f 64/76/64 65/77/65 66/78/66 
f 67/79/67 66/80/66 65/81/65 
f 65/81/65 68/82/68 67/79/67 
f 63/83/63 64/76/64 66/78/66 
f 64/76/64 63/83/63 62/84/62 
f 64/76/64 62/84/62 16/17/16 
f 64/76/64 16/17/16 14/16/14 
f 65/77/65 64/76/64 14/16/14 
f 14/14/14 11/11/11 65/81/65 
f 16/23/16 62/74/62 25/30/25 
f 11/11/11 10/10/10 68/82/68 
f 68/82/68 65/81/65 11/11/11 
f 61/73/61 27/32/27 25/30/25 
f 25/30/25 62/74/62 61/73/61 
f 69/85/69 61/73/61 60/72/60 
f 60/72/60 70/86/70 69/85/69 
f 71/87/71 72/88/72 73/89/73 
f 71/90/71 73/91/73 67/79/67 
f 67/79/67 68/82/68 71/90/71 
f 72/88/72 70/92/70 73/89/73 
f 70/92/70 72/88/72 69/93/69 
f 44/53/44 46/52/46 72/88/72 
f 72/88/72 71/87/71 44/53/44 
f 42/48/42 44/50/44 71/90/71 
f 69/85/69 72/94/72 46/58/46 
f 46/58/46 55/66/55 69/85/69 
f 68/82/68 10/10/10 42/48/42 
f 42/48/42 71/90/71 68/82/68 
f 55/66/55 27/32/27 61/73/61 
f 61/73/61 69/85/69 55/66/55 
f 74/95/74 75/96/75 76/97/76 
f 76/97/76 77/98/77 74/95/74 
f 74/95/74 77/98/77 78/99/78 
f 78/99/78 79/100/79 74/95/74 
f 80/101/80 81/102/81 82/103/82 
f 82/103/82 83/104/83 80/101/80 
f 81/102/81 84/105/84 85/106/85 
f 85/106/85 82/103/82 81/102/81 
f 84/107/84 79/100/79 78/99/78 
f 78/99/78 85/108/85 84/107/84 
f 77/98/77 76/97/76 86/109/86 
f 86/109/86 87/110/87 77/98/77 
f 77/98/77 87/110/87 88/111/88 
f 88/111/88 78/99/78 77/98/77 
f 82/103/82 85/106/85 89/112/89 
f 89/112/89 90/113/90 82/103/82 
f 85/108/85 78/99/78 88/111/88 
f 88/111/88 89/114/89 85/108/85 
f 83/104/83 82/103/82 90/113/90 
f 90/113/90 91/115/91 83/104/83 
f 76/97/76 75/96/75 92/116/92 
f 92/116/92 93/117/93 76/97/76 
f 94/118/94 93/117/93 92/116/92 
f 92/116/92 95/119/95 94/118/94 
f 96/120/96 97/121/97 80/101/80 
f 80/101/80 83/104/83 96/120/96 
f 98/122/98 99/123/99 97/121/97 
f 97/121/97 96/120/96 98/122/98 
f 94/118/94 95/119/95 99/124/99 
f 99/124/99 98/125/98 94/118/94 
f 86/109/86 76/97/76 93/117/93 
f 93/117/93 100/126/100 86/109/86 
f 93/117/93 94/118/94 101/127/101 
f 101/127/101 100/126/100 93/117/93 
f 102/128/102 98/122/98 96/120/96 
f 96/120/96 103/129/103 102/128/102 
f 101/127/101 94/118/94 98/125/98 
f 98/125/98 102/130/102 101/127/101 
f 103/129/103 96/120/96 83/104/83 
f 83/104/83 91/115/91 103/129/103 
f 74/95/74 79/100/79 6/6/6 
f 6/6/6 1/1/1 74/95/74 
f 30/35/30 29/34/29 81/102/81 
f 81/102/81 80/101/80 30/35/30 
f 31/36/31 84/105/84 81/102/81 
f 81/102/81 29/34/29 31/36/31 
f 79/100/79 84/107/84 31/39/31 
f 31/39/31 8/8/8 79/100/79 
f 6/6/6 79/100/79 8/8/8 
f 1/1/1 4/4/4 75/96/75 
f 75/96/75 74/95/74 1/1/1 
f 36/42/36 95/119/95 92/116/92 
f 92/116/92 35/41/35 36/42/36 
f 97/121/97 56/67/56 30/35/30 
f 30/35/30 80/101/80 97/121/97 
f 97/121/97 99/123/99 57/68/57 
f 57/68/57 56/67/56 97/121/97 
f 57/70/57 99/124/99 95/119/95 
f 95/119/95 40/46/40 57/70/57 
f 95/119/95 36/42/36 40/46/40 
f 75/96/75 4/4/4 35/41/35 
f 35/41/35 92/116/92 75/96/75 
f 104/131/104 105/132/105 87/110/87 
f 87/110/87 86/109/86 104/131/104 
f 87/110/87 106/133/106 107/134/107 
f 107/134/107 88/111/88 87/110/87 
f 90/113/90 108/135/108 109/136/109 
f 109/136/109 91/115/91 90/113/90 
f 90/113/90 89/112/89 110/137/110 
f 110/137/110 108/135/108 90/113/90 
f 89/114/89 88/111/88 107/134/107 
f 107/134/107 110/138/110 89/114/89 
f 111/139/111 112/140/112 105/132/105 
f 113/141/113 111/139/111 105/132/105 
f 105/132/105 104/131/104 113/141/113 
f 114/142/114 115/143/115 112/140/112 
f 112/140/112 111/139/111 114/142/114 
f 114/144/114 116/145/116 117/146/117 
f 117/146/117 115/147/115 114/144/114 
f 118/148/118 119/149/119 117/146/117 
f 117/146/117 120/150/120 118/148/118 
f 117/146/117 116/145/116 120/150/120 
f 118/148/118 120/150/120 109/136/109 
f 109/136/109 108/135/108 118/148/118 
f 118/148/118 108/135/108 110/137/110 
f 110/137/110 121/151/121 118/148/118 
f 106/133/106 87/110/87 105/132/105 
f 122/152/122 106/133/106 105/132/105 
f 105/132/105 112/140/112 122/152/122 
f 123/153/123 114/142/114 111/139/111 
f 111/139/111 113/141/113 123/153/123 
f 124/154/124 116/145/116 114/144/114 
f 114/144/114 123/155/123 124/154/124 
f 116/145/116 124/154/124 120/150/120 
f 110/138/110 107/134/107 125/156/125 
f 125/156/125 121/157/121 110/138/110 
f 121/151/121 119/149/119 118/148/118 
f 107/134/107 106/133/106 122/152/122 
f 122/152/122 125/156/125 107/134/107 
f 100/126/100 126/158/126 104/131/104 
f 104/131/104 86/109/86 100/126/100 
f 127/159/127 128/160/128 100/126/100 
f 100/126/100 101/127/101 127/159/127 
f 109/136/109 129/161/129 103/129/103 
f 103/129/103 91/115/91 109/136/109 
f 130/162/130 102/128/102 103/129/103 
f 103/129/103 129/161/129 130/162/130 
f 127/159/127 101/127/101 102/130/102 
f 102/130/102 130/163/130 127/159/127 
f 131/164/131 132/165/132 126/158/126 
f 126/158/126 132/165/132 113/141/113 
f 113/141/113 104/131/104 126/158/126 
f 131/164/131 133/166/133 134/167/134 
f 134/167/134 132/165/132 131/164/131 
f 135/168/135 136/169/136 134/170/134 
f 134/170/134 133/171/133 135/168/135 
f 135/168/135 137/172/137 138/173/138 
f 138/173/138 120/150/120 135/168/135 
f 136/169/136 135/168/135 120/150/120 
f 109/136/109 120/150/120 138/173/138 
f 138/173/138 129/161/129 109/136/109 
f 130/162/130 129/161/129 138/173/138 
f 138/173/138 139/174/139 130/162/130 
f 100/126/100 128/160/128 126/158/126 
f 126/158/126 128/160/128 140/175/140 
f 140/175/140 131/164/131 126/158/126 
f 132/165/132 134/167/134 123/153/123 
f 123/153/123 113/141/113 132/165/132 
f 134/170/134 136/169/136 124/154/124 
f 124/154/124 123/155/123 134/170/134 
f 124/154/124 136/169/136 120/150/120 
f 141/176/141 127/159/127 130/163/130 
f 130/163/130 139/177/139 141/176/141 
f 137/172/137 139/174/139 138/173/138 
f 140/175/140 128/160/128 127/159/127 
f 127/159/127 141/176/141 140/175/140 
f 21/24/21 32/37/32 33/38/33 
f 33/38/33 24/28/24 23/27/23 
f 21/24/21 33/38/33 23/27/23 
f 22/25/22 21/24/21 23/27/23 
f 52/62/52 59/71/59 58/69/58 
f 58/69/58 51/60/51 50/59/50 
f 52/62/52 58/69/58 50/59/50 
f 53/63/53 52/62/52 50/59/50 
# 264 faces

