# 3ds Max Wavefront OBJ Exporter v0.99 - (c)2007 guruware
# File Created: 17.11.2023 14:00:27

mtllib ?? ????\head.mtl

#
# object _head
#

v  1.3491 -1.0758 5.7087
v  1.2891 -2.2628 6.3899
v  2.6660 -2.3987 5.6550
v  4.1182 -1.3190 4.6915
v  4.1722 0.3484 4.6803
v  1.8423 0.3484 5.6384
v  5.3915 -1.6532 2.5806
v  5.6425 0.3484 2.5713
v  4.2288 2.2261 5.1359
v  1.8223 2.2261 6.2809
v  5.7013 2.0393 2.6835
v  0.0000 -0.8641 6.2989
v  0.4023 -1.9675 7.1059
v  0.0000 0.3484 6.0654
v  0.0000 2.2261 6.6085
v  0.3948 -2.3877 7.0900
v  4.2623 5.0781 4.5323
v  2.1087 5.3360 5.7148
v  5.6309 4.2781 2.6727
v  0.0000 -1.9433 7.2616
v  0.0000 -2.4200 7.2352
v  0.0000 5.3361 6.2234
v  0.5578 -3.1234 6.5193
v  0.0000 -4.1997 6.2534
v  1.3515 -4.1972 6.0359
v  0.0000 -5.9079 5.4790
v  1.4076 -5.8210 5.1110
v  3.6979 -4.0962 4.5106
v  4.7234 -3.9353 2.5522
v  2.7107 -5.6764 4.2116
v  3.6138 -5.4509 2.3194
v  1.6091 -6.6104 3.9715
v  2.2378 -6.3584 1.2028
v  0.0000 -6.8640 4.3565
v  2.6258 -4.1419 5.3684
v  3.1855 7.5862 3.1856
v  5.5739 6.0338 1.6981
v  -0.0000 8.2206 4.0420
v  5.5755 -2.3208 0.4448
v  6.1698 0.8210 0.4656
v  6.2003 3.9810 0.5770
v  5.1249 -3.6345 0.4141
v  4.1334 -4.9431 -0.0039
v  7.1096 -2.0644 -1.7865
v  6.2250 -2.6793 -0.4676
v  5.6711 -2.5286 -0.9124
v  6.4481 -1.9427 -1.9516
v  5.4578 -2.3950 -0.4898
v  7.0011 1.2928 -0.7847
v  6.4590 1.2600 -1.2910
v  6.1615 0.9470 -0.6581
v  7.4851 0.2549 -2.1199
v  6.7874 0.1380 -2.2649
v  5.8945 -0.6907 -1.1966
v  6.2968 -0.9247 -0.3250
v  -0.0000 -6.8756 1.6680
v  5.3237 7.2380 -0.9663
v  2.8637 8.9840 -0.2533
v  0.0000 9.3931 -0.0290
v  6.1800 4.1708 -1.7111
v  5.2020 6.1813 -4.1045
v  2.9367 7.8910 -4.4537
v  0.0000 8.5813 -4.4741
v  5.1390 3.9589 -5.5722
v  2.9373 4.7528 -7.0797
v  -0.0000 5.0826 -7.6613
v  6.0070 2.2591 -3.5613
v  4.8169 0.2516 -5.6786
v  2.8747 0.5672 -7.5669
v  -0.0000 0.6279 -8.1790
v  5.6810 -0.1938 -3.4154
v  4.1495 -2.8424 -4.4191
v  2.5095 -2.4555 -6.6761
v  -0.0000 -2.4088 -7.3153
v  4.9618 -3.2859 -1.4315
v  0.0000 -3.1821 6.6314
v  2.1215 -5.9457 -1.6065
v  3.4401 -4.6800 -2.7407
v  2.0514 -4.5984 -4.8879
v  0.0000 -4.5517 -5.4268
v  0.0000 -5.8449 -3.2854
v  0.0000 -6.7352 -0.3726
v  -2.6660 -2.3987 5.6550
v  -1.2891 -2.2628 6.3899
v  -1.3491 -1.0758 5.7087
v  -4.1182 -1.3190 4.6915
v  -1.8423 0.3484 5.6384
v  -4.1722 0.3484 4.6803
v  -5.6425 0.3484 2.5713
v  -5.3915 -1.6532 2.5806
v  -1.8223 2.2261 6.2809
v  -4.2288 2.2261 5.1359
v  -5.7013 2.0393 2.6835
v  -0.4023 -1.9675 7.1059
v  -0.3947 -2.3877 7.0900
v  -2.1087 5.3360 5.7148
v  -4.2623 5.0781 4.5323
v  -5.6309 4.2781 2.6727
v  -1.3515 -4.1972 6.0359
v  -0.5578 -3.1234 6.5193
v  -1.4076 -5.8210 5.1111
v  -3.6979 -4.0962 4.5106
v  -4.7234 -3.9353 2.5522
v  -2.7107 -5.6764 4.2116
v  -3.6138 -5.4509 2.3194
v  -2.2378 -6.3584 1.2028
v  -1.6091 -6.6104 3.9715
v  -2.6258 -4.1419 5.3684
v  -3.1855 7.5862 3.1856
v  -5.5739 6.0338 1.6981
v  -5.5755 -2.3208 0.4448
v  -6.1698 0.8210 0.4656
v  -6.2003 3.9810 0.5770
v  -5.1249 -3.6345 0.4141
v  -4.1334 -4.9431 -0.0039
v  -5.6711 -2.5286 -0.9124
v  -6.2250 -2.6793 -0.4676
v  -7.1096 -2.0644 -1.7865
v  -6.4481 -1.9427 -1.9516
v  -5.4578 -2.3950 -0.4898
v  -6.4590 1.2600 -1.2910
v  -7.0011 1.2928 -0.7847
v  -6.1615 0.9470 -0.6581
v  -6.7874 0.1380 -2.2649
v  -7.4851 0.2549 -2.1199
v  -5.8945 -0.6907 -1.1966
v  -6.2968 -0.9247 -0.3250
v  -5.3237 7.2380 -0.9663
v  -2.8637 8.9840 -0.2533
v  -6.1800 4.1708 -1.7111
v  -2.9367 7.8910 -4.4537
v  -5.2020 6.1813 -4.1045
v  -2.9373 4.7528 -7.0797
v  -5.1390 3.9589 -5.5722
v  -6.0070 2.2591 -3.5613
v  -2.8747 0.5672 -7.5669
v  -4.8169 0.2516 -5.6786
v  -5.6810 -0.1938 -3.4154
v  -2.5095 -2.4555 -6.6761
v  -4.1495 -2.8424 -4.4191
v  -4.9618 -3.2859 -1.4315
v  -2.1215 -5.9457 -1.6065
v  -3.4401 -4.6800 -2.7407
v  -2.0514 -4.5984 -4.8879
# 144 vertices

vn 0.4052 0.2307 0.8846
vn 0.5566 0.0807 0.8269
vn 0.5009 0.0546 0.8638
vn 0.6681 -0.0494 0.7424
vn 0.6331 -0.1104 0.7661
vn 0.3100 -0.1688 0.9356
vn 0.9281 -0.1743 0.3291
vn 0.9234 -0.1018 0.3701
vn 0.6413 -0.0412 0.7661
vn 0.3066 -0.0827 0.9482
vn 0.9246 -0.0174 0.3805
vn -0.0000 0.4634 0.8861
vn 0.4790 0.2896 0.8287
vn 0.0000 -0.1176 0.9931
vn 0.0000 -0.0774 0.9970
vn 0.4636 -0.2890 0.8376
vn 0.6536 0.3423 0.6750
vn 0.3456 0.3887 0.8541
vn 0.9033 0.1405 0.4053
vn -0.0000 0.3190 0.9477
vn -0.0000 -0.3465 0.9381
vn -0.0000 0.3739 0.9275
vn 0.3199 -0.3546 0.8786
vn 0.0000 -0.3673 0.9301
vn 0.3300 -0.3200 0.8881
vn 0.0000 -0.6108 0.7917
vn 0.3598 -0.6083 0.7075
vn 0.7308 -0.3516 0.5851
vn 0.8633 -0.4373 0.2521
vn 0.6187 -0.6400 0.4556
vn 0.6835 -0.7211 0.1133
vn 0.3717 -0.8857 0.2781
vn 0.4058 -0.9117 -0.0648
vn 0.0000 -0.9310 0.3651
vn 0.5366 -0.3094 0.7851
vn 0.4715 0.7370 0.4843
vn 0.8447 0.4534 0.2845
vn -0.0000 0.8177 0.5757
vn 0.9058 -0.3544 0.2322
vn 0.9597 -0.0126 0.2806
vn 0.9882 0.1102 0.1066
vn 0.8887 -0.4578 -0.0242
vn 0.7008 -0.7038 -0.1165
vn 0.7566 -0.5604 -0.3369
vn 0.4485 -0.8442 0.2935
vn -0.6031 -0.6728 -0.4285
vn -0.3266 -0.4089 -0.8521
vn 0.4374 -0.8759 -0.2034
vn 0.6368 0.7249 0.2628
vn -0.3944 0.8191 -0.4166
vn 0.4781 0.8444 -0.2417
vn 0.8390 0.2316 -0.4923
vn -0.2920 0.2261 -0.9293
vn -0.9075 0.1363 -0.3973
vn 0.8477 -0.1272 0.5150
vn -0.0000 -0.9990 -0.0438
vn 0.7868 0.6168 -0.0238
vn 0.3767 0.9250 0.0499
vn 0.0000 0.9982 0.0598
vn 0.9848 0.1453 -0.0955
vn 0.7813 0.4759 -0.4037
vn 0.3822 0.7818 -0.4926
vn 0.0000 0.8737 -0.4864
vn 0.7931 0.1680 -0.5855
vn 0.4004 0.3502 -0.8468
vn -0.0000 0.4060 -0.9139
vn 0.9659 -0.0223 -0.2578
vn 0.7958 -0.2049 -0.5698
vn 0.4428 -0.1082 -0.8901
vn -0.0000 -0.0761 -0.9971
vn 0.9342 -0.2460 -0.2585
vn 0.7529 -0.4913 -0.4379
vn 0.4411 -0.4770 -0.7602
vn -0.0000 -0.4720 -0.8816
vn 0.8566 -0.4658 -0.2220
vn -0.0000 -0.4747 0.8801
vn 0.3834 -0.8884 -0.2524
vn 0.6379 -0.7017 -0.3174
vn 0.3742 -0.7500 -0.5454
vn 0.0000 -0.7551 -0.6556
vn 0.0000 -0.9194 -0.3933
vn 0.0000 -0.9849 -0.1734
vn -0.5009 0.0546 0.8638
vn -0.5566 0.0807 0.8269
vn -0.4052 0.2307 0.8846
vn -0.6681 -0.0494 0.7424
vn -0.3100 -0.1688 0.9356
vn -0.6331 -0.1104 0.7661
vn -0.9234 -0.1018 0.3701
vn -0.9281 -0.1743 0.3291
vn -0.3066 -0.0827 0.9482
vn -0.6413 -0.0412 0.7661
vn -0.9246 -0.0174 0.3805
vn -0.4790 0.2896 0.8287
vn -0.4636 -0.2890 0.8376
vn -0.3456 0.3887 0.8541
vn -0.6536 0.3423 0.6750
vn -0.9033 0.1405 0.4053
vn -0.3300 -0.3200 0.8881
vn -0.3199 -0.3546 0.8786
vn -0.3598 -0.6083 0.7075
vn -0.7308 -0.3516 0.5851
vn -0.8633 -0.4373 0.2521
vn -0.6187 -0.6400 0.4556
vn -0.6835 -0.7211 0.1133
vn -0.4058 -0.9117 -0.0648
vn -0.3717 -0.8857 0.2781
vn -0.5366 -0.3094 0.7851
vn -0.4715 0.7370 0.4843
vn -0.8447 0.4534 0.2845
vn -0.9058 -0.3544 0.2322
vn -0.9597 -0.0126 0.2806
vn -0.9882 0.1102 0.1066
vn -0.8887 -0.4578 -0.0242
vn -0.7008 -0.7038 -0.1165
vn 0.6031 -0.6728 -0.4285
vn -0.4485 -0.8442 0.2935
vn -0.7566 -0.5604 -0.3369
vn 0.3266 -0.4089 -0.8521
vn -0.4374 -0.8759 -0.2034
vn 0.3944 0.8191 -0.4166
vn -0.6368 0.7249 0.2628
vn -0.4781 0.8444 -0.2417
vn 0.2920 0.2261 -0.9293
vn -0.8390 0.2316 -0.4923
vn 0.9075 0.1363 -0.3973
vn -0.8477 -0.1272 0.5150
vn -0.7868 0.6168 -0.0238
vn -0.3767 0.9250 0.0499
vn -0.9848 0.1453 -0.0955
vn -0.3822 0.7818 -0.4926
vn -0.7813 0.4759 -0.4037
vn -0.4004 0.3502 -0.8468
vn -0.7931 0.1680 -0.5855
vn -0.9659 -0.0223 -0.2578
vn -0.4428 -0.1082 -0.8901
vn -0.7958 -0.2049 -0.5698
vn -0.9342 -0.2460 -0.2585
vn -0.4411 -0.4770 -0.7602
vn -0.7529 -0.4913 -0.4379
vn -0.8566 -0.4658 -0.2220
vn -0.3834 -0.8884 -0.2524
vn -0.6379 -0.7017 -0.3174
vn -0.3742 -0.7500 -0.5454
# 144 vertex normals

vt 0.5669 0.3626 0.5520
vt 0.5702 0.2929 0.6047
vt 0.6311 0.2769 0.5567
vt 0.7304 0.3387 0.4878
vt 0.7384 0.4328 0.4629
vt 0.5965 0.4381 0.5208
vt 0.8559 0.2927 0.4954
vt 0.8857 0.4259 0.4829
vt 0.7436 0.5366 0.4738
vt 0.5955 0.5402 0.5519
vt 0.8876 0.5299 0.4738
vt 0.5011 0.3738 0.5900
vt 0.5235 0.3130 0.6505
vt 0.5011 0.4404 0.5492
vt 0.5011 0.5419 0.5737
vt 0.5231 0.2896 0.6521
vt 0.7506 0.6949 0.4227
vt 0.6058 0.7100 0.4949
vt 0.8799 0.6729 0.4460
vt 0.5011 0.3151 0.6607
vt 0.5011 0.2885 0.6619
vt 0.5011 0.7126 0.5287
vt 0.5322 0.2457 0.6187
vt 0.5011 0.1846 0.6077
vt 0.5765 0.1836 0.5932
vt 0.5011 0.0857 0.5668
vt 0.5796 0.0886 0.5418
vt 0.7167 0.1746 0.4867
vt 0.8281 0.1424 0.4717
vt 0.6749 0.0810 0.4537
vt 0.8034 0.0307 0.4039
vt 0.0747 0.8148 0.3429
vt 0.0686 0.8265 0.4856
vt 0.0552 0.8310 0.4080
vt 0.0630 0.8209 0.3145
vt 0.5011 0.0085 0.4980
vt 0.6321 0.0150 0.4155
vt 0.6475 0.1832 0.5484
vt 0.7552 0.8268 0.3032
vt 0.9512 0.7779 0.3906
vt 0.5011 0.8615 0.3657
vt 0.9623 0.2177 0.4436
vt 0.9896 0.4427 0.4541
vt 0.9947 0.6642 0.4172
vt 0.9245 0.1205 0.4161
vt 0.9116 0.0180 0.3498
vt 0.0211 0.8760 0.5596
vt 0.0297 0.8659 0.5014
vt 0.0351 0.8688 0.5222
vt 0.0275 0.8777 0.5659
vt 0.0361 0.8660 0.4456
vt 0.0372 0.8685 0.4970
vt 0.0303 0.8947 0.3819
vt 0.0222 0.9032 0.4392
vt 0.0274 0.9047 0.4669
vt 0.0303 0.8996 0.4394
vt 0.0174 0.8983 0.5311
vt 0.0242 0.8977 0.5412
vt 0.0329 0.8865 0.5007
vt 0.9510 0.9963 0.4541
vt 0.7332 0.9960 0.4436
vt 0.8352 0.9315 0.4666
vt 0.7172 0.9220 0.4895
vt 0.7685 0.8310 0.5291
vt 0.9924 0.9071 0.4941
vt 0.9291 0.8175 0.5296
vt 0.0904 0.8112 0.3274
vt 0.0904 0.8202 0.4711
vt 0.0594 0.9472 0.1020
vt 0.0361 0.9381 0.2123
vt 0.0385 0.9582 0.3304
vt 0.0625 0.9717 0.2576
vt 0.0904 0.9747 0.2375
vt 0.0904 0.9501 0.0437
vt 0.0300 0.9232 0.3130
vt 0.0302 0.9327 0.4313
vt 0.0397 0.9592 0.5189
vt 0.0618 0.9760 0.5035
vt 0.0904 0.9824 0.4908
vt 0.0403 0.9439 0.6415
vt 0.0618 0.9563 0.7061
vt 0.0904 0.9613 0.7306
vt 0.0319 0.9215 0.5681
vt 0.0435 0.9104 0.7211
vt 0.0624 0.9197 0.8155
vt 0.0904 0.9224 0.8470
vt 0.0350 0.8986 0.6092
vt 0.0500 0.8779 0.7155
vt 0.0660 0.8891 0.8282
vt 0.0904 0.8917 0.8614
vt 0.0420 0.8636 0.5650
vt 0.5011 0.2431 0.6265
vt 0.0697 0.8399 0.6273
vt 0.0501 0.8436 0.5218
vt 0.0405 0.8541 0.4734
vt 0.0569 0.8553 0.6626
vt 0.0704 0.8634 0.7755
vt 0.0904 0.8657 0.8033
vt 0.0904 0.8465 0.7149
vt 0.0904 0.8285 0.5772
vt 0.3711 0.2769 0.5567
vt 0.4320 0.2929 0.6047
vt 0.4353 0.3626 0.5520
vt 0.2719 0.3387 0.4878
vt 0.4057 0.4381 0.5208
vt 0.2638 0.4328 0.4629
vt 0.1166 0.4259 0.4829
vt 0.1463 0.2927 0.4954
vt 0.4067 0.5402 0.5519
vt 0.2586 0.5366 0.4738
vt 0.1146 0.5299 0.4738
vt 0.4787 0.3130 0.6505
vt 0.4791 0.2896 0.6521
vt 0.3965 0.7100 0.4949
vt 0.2516 0.6949 0.4227
vt 0.1223 0.6729 0.4460
vt 0.4258 0.1836 0.5932
vt 0.4700 0.2457 0.6187
vt 0.4226 0.0886 0.5418
vt 0.2855 0.1746 0.4867
vt 0.1741 0.1424 0.4717
vt 0.3273 0.0810 0.4537
vt 0.1988 0.0307 0.4039
vt 0.1257 0.8310 0.4080
vt 0.1123 0.8265 0.4856
vt 0.1061 0.8148 0.3429
vt 0.1179 0.8209 0.3145
vt 0.3702 0.0150 0.4155
vt 0.3547 0.1832 0.5484
vt 0.2471 0.8268 0.3032
vt 0.0511 0.7779 0.3906
vt 0.0399 0.2177 0.4436
vt 0.0126 0.4427 0.4541
vt 0.0076 0.6642 0.4172
vt 0.0777 0.1205 0.4161
vt 0.0906 0.0180 0.3498
vt 0.1458 0.8688 0.5222
vt 0.1512 0.8659 0.5014
vt 0.1598 0.8760 0.5596
vt 0.1533 0.8777 0.5659
vt 0.1448 0.8660 0.4456
vt 0.1437 0.8685 0.4970
vt 0.1534 0.9047 0.4669
vt 0.1587 0.9032 0.4392
vt 0.1506 0.8947 0.3819
vt 0.1505 0.8996 0.4394
vt 0.1566 0.8977 0.5412
vt 0.1634 0.8983 0.5311
vt 0.1479 0.8865 0.5007
vt 0.1424 0.9582 0.3304
vt 0.1448 0.9381 0.2123
vt 0.1215 0.9472 0.1020
vt 0.1184 0.9717 0.2576
vt 0.1507 0.9327 0.4313
vt 0.1509 0.9232 0.3130
vt 0.1191 0.9760 0.5035
vt 0.1412 0.9592 0.5189
vt 0.1191 0.9563 0.7061
vt 0.1406 0.9439 0.6415
vt 0.1490 0.9215 0.5681
vt 0.1185 0.9197 0.8155
vt 0.1374 0.9104 0.7211
vt 0.1459 0.8986 0.6092
vt 0.1149 0.8891 0.8282
vt 0.1309 0.8779 0.7155
vt 0.1388 0.8636 0.5650
vt 0.1308 0.8436 0.5218
vt 0.1111 0.8399 0.6273
vt 0.1404 0.8541 0.4734
vt 0.1240 0.8553 0.6626
vt 0.1105 0.8634 0.7755
# 171 texture coords

o _head
g _head
usemtl 24___Default
s 1
f 1/1/1 2/2/2 3/3/3 
f 3/3/3 4/4/4 1/1/1 
f 4/4/4 5/5/5 6/6/6 
f 6/6/6 1/1/1 4/4/4 
f 4/4/4 7/7/7 8/8/8 
f 8/8/8 5/5/5 4/4/4 
f 9/9/9 10/10/10 6/6/6 
f 6/6/6 5/5/5 9/9/9 
f 8/8/8 11/11/11 9/9/9 
f 9/9/9 5/5/5 8/8/8 
f 1/1/1 12/12/12 13/13/13 
f 13/13/13 2/2/2 1/1/1 
f 14/14/14 12/12/12 1/1/1 
f 1/1/1 6/6/6 14/14/14 
f 10/10/10 15/15/15 14/14/14 
f 14/14/14 6/6/6 10/10/10 
f 2/2/2 13/13/13 16/16/16 
f 9/9/9 17/17/17 18/18/18 
f 18/18/18 10/10/10 9/9/9 
f 9/9/9 11/11/11 19/19/19 
f 19/19/19 17/17/17 9/9/9 
f 12/12/12 20/20/20 13/13/13 
f 20/20/20 21/21/21 16/16/16 
f 10/10/10 18/18/18 22/22/22 
f 22/22/22 15/15/15 10/10/10 
f 23/23/23 24/24/24 25/25/25 
f 25/25/25 2/2/2 23/23/23 
f 26/26/26 27/27/27 25/25/25 
f 25/25/25 24/24/24 26/26/26 
f 7/7/7 4/4/4 28/28/28 
f 28/28/28 29/29/29 7/7/7 
f 29/29/29 28/28/28 30/30/30 
f 30/30/30 31/31/31 29/29/29 
f 32/32/32 33/33/33 31/34/31 
f 31/34/31 30/35/30 32/32/32 
f 34/36/34 32/37/32 27/27/27 
f 27/27/27 26/26/26 34/36/34 
f 3/3/3 35/38/35 28/28/28 
f 28/28/28 4/4/4 3/3/3 
f 28/28/28 35/38/35 30/30/30 
f 25/25/25 35/38/35 3/3/3 
f 3/3/3 2/2/2 25/25/25 
f 27/27/27 30/30/30 35/38/35 
f 35/38/35 25/25/25 27/27/27 
f 30/30/30 27/27/27 32/37/32 
f 18/18/18 17/17/17 36/39/36 
f 17/17/17 19/19/19 37/40/37 
f 37/40/37 36/39/36 17/17/17 
f 38/41/38 22/22/22 18/18/18 
f 18/18/18 36/39/36 38/41/38 
f 8/8/8 7/7/7 39/42/39 
f 39/42/39 40/43/40 8/8/8 
f 11/11/11 8/8/8 40/43/40 
f 11/11/11 40/43/40 41/44/41 
f 41/44/41 19/19/19 11/11/11 
f 29/29/29 42/45/42 39/42/39 
f 39/42/39 7/7/7 29/29/29 
f 31/31/31 43/46/43 42/45/42 
f 42/45/42 29/29/29 31/31/31 
f 37/40/37 19/19/19 41/44/41 
f 44/47/44 45/48/45 46/49/46 
f 46/49/46 47/50/47 44/47/44 
f 46/49/46 45/48/45 39/51/39 
f 39/51/39 48/52/48 46/49/46 
f 40/53/40 49/54/49 50/55/50 
f 50/55/50 51/56/51 40/53/40 
f 52/57/52 53/58/53 50/55/50 
f 50/55/50 49/54/49 52/57/52 
f 44/47/44 47/50/47 53/58/53 
f 53/58/53 52/57/52 44/47/44 
f 47/50/47 46/49/46 54/59/54 
f 46/49/46 48/52/48 54/59/54 
f 51/56/51 50/55/50 54/59/54 
f 50/55/50 53/58/53 54/59/54 
f 53/58/53 47/50/47 54/59/54 
f 40/60/40 39/61/39 55/62/55 
f 45/63/45 44/64/44 55/62/55 
f 39/61/39 45/63/45 55/62/55 
f 49/65/49 40/60/40 55/62/55 
f 52/66/52 49/65/49 55/62/55 
f 44/64/44 52/66/52 55/62/55 
f 51/56/51 54/59/54 48/52/48 
f 32/32/32 34/67/34 56/68/56 
f 56/68/56 33/33/33 32/32/32 
f 36/69/36 37/70/37 57/71/57 
f 57/71/57 58/72/58 36/69/36 
f 58/72/58 59/73/59 38/74/38 
f 38/74/38 36/69/36 58/72/58 
f 41/75/41 60/76/60 57/71/57 
f 57/71/57 37/70/37 41/75/41 
f 41/75/41 40/53/40 51/56/51 
f 51/56/51 60/76/60 41/75/41 
f 57/71/57 61/77/61 62/78/62 
f 62/78/62 58/72/58 57/71/57 
f 58/72/58 62/78/62 63/79/63 
f 63/79/63 59/73/59 58/72/58 
f 60/76/60 61/77/61 57/71/57 
f 61/77/61 64/80/64 65/81/65 
f 65/81/65 62/78/62 61/77/61 
f 66/82/66 63/79/63 62/78/62 
f 62/78/62 65/81/65 66/82/66 
f 61/77/61 60/76/60 67/83/67 
f 67/83/67 64/80/64 61/77/61 
f 64/80/64 68/84/68 69/85/69 
f 69/85/69 65/81/65 64/80/64 
f 69/85/69 70/86/70 66/82/66 
f 66/82/66 65/81/65 69/85/69 
f 67/83/67 71/87/71 68/84/68 
f 68/84/68 64/80/64 67/83/67 
f 68/84/68 72/88/72 73/89/73 
f 73/89/73 69/85/69 68/84/68 
f 74/90/74 70/86/70 69/85/69 
f 69/85/69 73/89/73 74/90/74 
f 71/87/71 75/91/75 72/88/72 
f 72/88/72 68/84/68 71/87/71 
f 23/23/23 2/2/2 16/16/16 
f 16/16/16 21/21/21 76/92/76 
f 76/92/76 24/24/24 23/23/23 
f 71/87/71 67/83/67 51/56/51 
f 48/52/48 75/91/75 71/87/71 
f 71/87/71 51/56/51 48/52/48 
f 60/76/60 51/56/51 67/83/67 
f 33/33/33 77/93/77 43/94/43 
f 43/94/43 31/34/31 33/33/33 
f 75/91/75 48/52/48 39/51/39 
f 39/51/39 42/95/42 75/91/75 
f 43/94/43 78/96/78 75/91/75 
f 75/91/75 42/95/42 43/94/43 
f 72/88/72 78/96/78 79/97/79 
f 79/97/79 73/89/73 72/88/72 
f 75/91/75 78/96/78 72/88/72 
f 78/96/78 43/94/43 77/93/77 
f 77/93/77 79/97/79 78/96/78 
f 16/16/16 13/13/13 20/20/20 
f 76/92/76 23/23/23 16/16/16 
f 73/89/73 79/97/79 80/98/80 
f 80/98/80 74/90/74 73/89/73 
f 79/97/79 77/93/77 81/99/81 
f 81/99/81 80/98/80 79/97/79 
f 82/100/82 81/99/81 77/93/77 
f 33/33/33 56/68/56 82/100/82 
f 82/100/82 77/93/77 33/33/33 
f 83/101/83 84/102/84 85/103/85 
f 85/103/85 86/104/86 83/101/83 
f 87/105/87 88/106/88 86/104/86 
f 86/104/86 85/103/85 87/105/87 
f 89/107/89 90/108/90 86/104/86 
f 86/104/86 88/106/88 89/107/89 
f 87/105/87 91/109/91 92/110/92 
f 92/110/92 88/106/88 87/105/87 
f 92/110/92 93/111/93 89/107/89 
f 89/107/89 88/106/88 92/110/92 
f 94/112/94 12/12/12 85/103/85 
f 85/103/85 84/102/84 94/112/94 
f 85/103/85 12/12/12 14/14/14 
f 14/14/14 87/105/87 85/103/85 
f 14/14/14 15/15/15 91/109/91 
f 91/109/91 87/105/87 14/14/14 
f 94/112/94 84/102/84 95/113/95 
f 96/114/96 97/115/97 92/110/92 
f 92/110/92 91/109/91 96/114/96 
f 98/116/98 93/111/93 92/110/92 
f 92/110/92 97/115/97 98/116/98 
f 20/20/20 12/12/12 94/112/94 
f 21/21/21 20/20/20 95/113/95 
f 22/22/22 96/114/96 91/109/91 
f 91/109/91 15/15/15 22/22/22 
f 99/117/99 24/24/24 100/118/100 
f 100/118/100 84/102/84 99/117/99 
f 99/117/99 101/119/101 26/26/26 
f 26/26/26 24/24/24 99/117/99 
f 102/120/102 86/104/86 90/108/90 
f 90/108/90 103/121/103 102/120/102 
f 104/122/104 102/120/102 103/121/103 
f 103/121/103 105/123/105 104/122/104 
f 105/124/105 106/125/106 107/126/107 
f 107/126/107 104/127/104 105/124/105 
f 101/119/101 107/128/107 34/36/34 
f 34/36/34 26/26/26 101/119/101 
f 102/120/102 108/129/108 83/101/83 
f 83/101/83 86/104/86 102/120/102 
f 108/129/108 102/120/102 104/122/104 
f 83/101/83 108/129/108 99/117/99 
f 99/117/99 84/102/84 83/101/83 
f 108/129/108 104/122/104 101/119/101 
f 101/119/101 99/117/99 108/129/108 
f 101/119/101 104/122/104 107/128/107 
f 97/115/97 96/114/96 109/130/109 
f 110/131/110 98/116/98 97/115/97 
f 97/115/97 109/130/109 110/131/110 
f 96/114/96 22/22/22 38/41/38 
f 38/41/38 109/130/109 96/114/96 
f 111/132/111 90/108/90 89/107/89 
f 89/107/89 112/133/112 111/132/111 
f 89/107/89 93/111/93 112/133/112 
f 113/134/113 112/133/112 93/111/93 
f 93/111/93 98/116/98 113/134/113 
f 111/132/111 114/135/114 103/121/103 
f 103/121/103 90/108/90 111/132/111 
f 114/135/114 115/136/115 105/123/105 
f 105/123/105 103/121/103 114/135/114 
f 98/116/98 110/131/110 113/134/113 
f 116/137/116 117/138/117 118/139/118 
f 118/139/118 119/140/119 116/137/116 
f 111/141/111 117/138/117 116/137/116 
f 116/137/116 120/142/120 111/141/111 
f 121/143/121 122/144/122 112/145/112 
f 112/145/112 123/146/123 121/143/121 
f 121/143/121 124/147/124 125/148/125 
f 125/148/125 122/144/122 121/143/121 
f 124/147/124 119/140/119 118/139/118 
f 118/139/118 125/148/125 124/147/124 
f 116/137/116 119/140/119 126/149/126 
f 120/142/120 116/137/116 126/149/126 
f 121/143/121 123/146/123 126/149/126 
f 124/147/124 121/143/121 126/149/126 
f 119/140/119 124/147/124 126/149/126 
f 111/61/111 112/60/112 127/62/127 
f 118/64/118 117/63/117 127/62/127 
f 117/63/117 111/61/111 127/62/127 
f 112/60/112 122/65/122 127/62/127 
f 122/65/122 125/66/125 127/62/127 
f 125/66/125 118/64/118 127/62/127 
f 126/149/126 123/146/123 120/142/120 
f 56/68/56 34/67/34 107/126/107 
f 107/126/107 106/125/106 56/68/56 
f 128/150/128 110/151/110 109/152/109 
f 109/152/109 129/153/129 128/150/128 
f 38/74/38 59/73/59 129/153/129 
f 129/153/129 109/152/109 38/74/38 
f 128/150/128 130/154/130 113/155/113 
f 113/155/113 110/151/110 128/150/128 
f 123/146/123 112/145/112 113/155/113 
f 113/155/113 130/154/130 123/146/123 
f 131/156/131 132/157/132 128/150/128 
f 128/150/128 129/153/129 131/156/131 
f 63/79/63 131/156/131 129/153/129 
f 129/153/129 59/73/59 63/79/63 
f 132/157/132 130/154/130 128/150/128 
f 133/158/133 134/159/134 132/157/132 
f 132/157/132 131/156/131 133/158/133 
f 131/156/131 63/79/63 66/82/66 
f 66/82/66 133/158/133 131/156/131 
f 135/160/135 130/154/130 132/157/132 
f 132/157/132 134/159/134 135/160/135 
f 136/161/136 137/162/137 134/159/134 
f 134/159/134 133/158/133 136/161/136 
f 66/82/66 70/86/70 136/161/136 
f 136/161/136 133/158/133 66/82/66 
f 137/162/137 138/163/138 135/160/135 
f 135/160/135 134/159/134 137/162/137 
f 139/164/139 140/165/140 137/162/137 
f 137/162/137 136/161/136 139/164/139 
f 136/161/136 70/86/70 74/90/74 
f 74/90/74 139/164/139 136/161/136 
f 140/165/140 141/166/141 138/163/138 
f 138/163/138 137/162/137 140/165/140 
f 84/102/84 100/118/100 95/113/95 
f 21/21/21 95/113/95 76/92/76 
f 24/24/24 76/92/76 100/118/100 
f 135/160/135 138/163/138 123/146/123 
f 138/163/138 141/166/141 120/142/120 
f 120/142/120 123/146/123 138/163/138 
f 123/146/123 130/154/130 135/160/135 
f 115/167/115 142/168/142 106/125/106 
f 106/125/106 105/124/105 115/167/115 
f 111/141/111 120/142/120 141/166/141 
f 141/166/141 114/169/114 111/141/111 
f 141/166/141 143/170/143 115/167/115 
f 115/167/115 114/169/114 141/166/141 
f 144/171/144 143/170/143 140/165/140 
f 140/165/140 139/164/139 144/171/144 
f 143/170/143 141/166/141 140/165/140 
f 142/168/142 115/167/115 143/170/143 
f 143/170/143 144/171/144 142/168/142 
f 94/112/94 95/113/95 20/20/20 
f 100/118/100 76/92/76 95/113/95 
f 80/98/80 144/171/144 139/164/139 
f 139/164/139 74/90/74 80/98/80 
f 81/99/81 142/168/142 144/171/144 
f 144/171/144 80/98/80 81/99/81 
f 81/99/81 82/100/82 142/168/142 
f 82/100/82 56/68/56 106/125/106 
f 106/125/106 142/168/142 82/100/82 
# 284 faces

