# 3ds Max Wavefront OBJ Exporter v0.99 - (c)2007 guruware
# File Created: 17.11.2023 14:32:20

mtllib ?? ????\arm.mtl

#
# object Object001
#

v  0.6281 0.7792 0.0024
v  1.8102 0.1916 -0.7567
v  1.5029 0.8781 -1.2173
v  1.4230 -0.8796 -1.8740
v  0.9023 0.0997 -2.5358
v  0.0840 -1.1836 -1.3835
v  -0.2565 -0.5226 -1.8555
v  -0.5965 -0.1385 -0.3266
v  1.0859 -0.2739 1.9197
v  2.2972 -0.9085 0.9777
v  2.0735 -2.4114 -0.7257
v  -0.1007 -1.2232 1.7254
v  0.5557 -2.4324 -0.2901
v  3.6192 -4.6534 6.8069
v  2.1491 -4.7408 7.1473
v  1.7515 -4.1040 4.9151
v  3.1316 -4.0219 4.1377
v  1.1462 -3.2036 7.6907
v  0.7621 -2.5966 5.4516
v  3.7352 -2.9564 7.1163
v  3.2406 -2.4287 4.8860
v  2.5290 -1.9355 7.6757
v  2.1082 -1.4702 5.4112
v  1.0419 -3.5306 1.8888
v  2.6265 -3.2548 1.5624
v  0.1007 -2.0765 3.3249
v  2.9843 -1.7248 2.7010
v  1.6699 -0.7695 3.2764
v  0.5181 3.1041 -2.8268
v  -0.7838 3.2848 -1.6696
v  0.1227 1.9020 -4.1029
v  -1.3822 1.4164 -3.6709
v  -1.9995 2.2533 -2.1470
v  -0.5638 5.8265 -5.4214
v  -1.1490 6.2265 -4.3819
v  -2.4240 5.8168 -3.5064
v  -0.9530 4.3834 -6.2040
v  -2.2665 3.6899 -5.5523
v  -3.0591 4.2947 -4.0418
v  3.9611 -5.1381 7.5277
v  2.2266 -5.2646 7.9484
v  0.9528 -3.3017 8.5965
v  4.0217 -3.0519 7.8794
v  2.5837 -1.8288 8.5459
v  3.3359 -4.3576 14.4115
v  2.8002 -3.4176 14.6439
v  2.6443 -3.1305 13.5777
v  3.2245 -4.1311 13.3006
v  2.5554 -3.9209 11.6076
v  3.6758 -6.1430 10.9400
v  3.7729 -5.1636 12.5407
v  4.3123 -6.1028 12.1836
v  4.8244 -7.0612 11.7185
v  1.4030 -4.0849 10.1945
v  2.7660 -6.3399 8.9096
v  4.4359 -5.5873 8.3056
v  4.5138 -2.7371 11.5893
v  2.8515 -2.0513 10.3294
v  3.7710 -2.3214 13.2006
v  4.5364 -3.2475 12.8213
v  5.7087 -5.2601 12.0747
v  5.6281 -4.6917 10.8474
v  5.1112 -4.2118 12.4907
v  6.0334 -6.3918 11.6264
v  3.6521 -4.9854 17.3102
v  3.2444 -4.1923 17.5108
v  2.6279 -4.3530 16.9919
v  3.0355 -5.1461 16.7913
v  3.9215 -6.5718 16.7682
v  3.4263 -5.7734 17.1683
v  2.8178 -5.8508 16.5101
v  3.3010 -6.6314 16.1202
v  4.4735 -8.4738 14.8404
v  4.1066 -7.8467 15.1171
v  3.6697 -7.8221 14.4390
v  4.0366 -8.4492 14.1622
v  1.1906 -2.0484 11.9418
v  0.0436 -3.0667 11.3976
v  2.2295 -2.9269 12.1759
v  2.5478 -3.0530 13.2375
v  3.1603 -4.0803 12.9507
v  4.8211 -7.3701 12.5727
v  4.3667 -6.5813 12.9461
v  4.3701 -6.2582 12.4606
v  4.8640 -7.1589 12.0877
v  3.8396 -2.8693 14.8282
v  4.3753 -3.8093 14.5957
v  5.3429 -6.2643 13.4590
v  5.7469 -7.0760 13.0543
v  3.3141 -4.4068 14.5765
v  2.7866 -3.4808 14.8163
v  4.7523 -7.4672 12.7265
v  4.3072 -6.6986 13.0919
v  3.2862 -4.5504 14.2213
v  4.3281 -4.0780 14.4876
v  3.2478 -4.1752 13.2861
v  3.2477 -4.6551 14.4060
v  3.8362 -5.2780 12.8506
v  4.3418 -6.1859 12.4922
v  1.0243 -4.1033 11.4423
v  0.8764 -3.9853 12.4343
v  0.1030 -3.2455 12.7517
v  1.0486 -2.4230 13.1467
v  1.8454 -3.0902 12.8875
v  0.8905 -4.1155 12.8213
v  1.7755 -3.2883 13.2464
v  0.8830 -4.3678 14.0429
v  0.2910 -3.9718 14.6752
v  0.9771 -3.3628 14.9765
v  1.5669 -3.7416 14.4178
v  4.8217 -4.9685 14.1250
v  3.7780 -5.6049 14.0132
v  3.8183 -5.5105 13.8303
v  3.7986 -5.2322 12.8670
v  4.1111 -7.6115 16.0273
v  3.6897 -6.9254 16.3526
v  3.1233 -6.9180 15.6433
v  3.5571 -7.6219 15.3076
v  4.2678 -6.5226 13.2436
v  3.7922 -5.6708 13.6071
v  4.7601 -5.1934 14.0204
v  5.2820 -6.1281 13.6215
v  4.1946 -6.6279 13.4072
v  3.7116 -5.7705 13.7786
v  -0.5944 7.3654 -6.4882
v  -1.3721 7.8970 -5.1068
v  -1.1116 5.4476 -7.5283
v  -4.2036 6.2311 -4.6548
v  -2.9245 4.7330 -6.6622
v  -3.0664 7.3525 -3.9433
v  -2.9792 7.8097 -6.8420
# 131 vertices

vn 0.0770 0.7464 0.6611
vn 0.9043 0.4244 -0.0452
vn 0.9063 0.4209 0.0373
vn 0.5096 -0.3252 -0.7966
vn 0.5223 -0.3780 -0.7644
vn -0.5810 -0.6463 -0.4947
vn -0.5613 -0.6836 -0.4666
vn -0.9303 -0.0844 0.3570
vn -0.0512 0.9070 0.4179
vn 0.8614 0.5068 -0.0331
vn 0.5634 -0.5472 -0.6190
vn -0.9548 0.1662 0.2466
vn -0.5757 -0.7192 -0.3890
vn 0.6284 -0.6112 -0.4812
vn -0.5164 -0.7997 -0.3062
vn -0.4919 -0.8651 -0.0980
vn 0.6627 -0.6969 -0.2739
vn -0.9915 0.1278 -0.0256
vn -0.9594 0.1200 0.2552
vn 0.8884 0.4218 -0.1813
vn 0.9116 0.4089 -0.0429
vn -0.0023 0.9997 0.0244
vn 0.0336 0.9628 0.2680
vn -0.4546 -0.8692 -0.1943
vn 0.6798 -0.6365 -0.3642
vn -0.9603 0.0529 0.2737
vn 0.9132 0.4031 -0.0596
vn 0.0507 0.9426 0.3299
vn 0.8977 0.4281 0.1044
vn 0.0101 0.5531 0.8331
vn 0.5760 -0.3734 -0.7272
vn -0.5199 -0.6977 -0.4929
vn -0.8784 -0.1602 0.4503
vn 0.9855 0.1697 -0.0005
vn 0.6458 0.4969 0.5797
vn -0.2131 0.3484 0.9128
vn 0.5692 -0.4910 -0.6595
vn -0.4679 -0.7080 -0.5290
vn -0.9210 -0.3084 0.2382
vn 0.5438 -0.4980 -0.6755
vn -0.5899 -0.7047 -0.3941
vn -0.9774 0.0824 -0.1945
vn 0.8351 0.4792 -0.2699
vn 0.0233 0.9953 -0.0941
vn -0.2315 -0.9431 -0.2385
vn -0.9506 0.2830 0.1276
vn -0.9393 0.2296 0.2551
vn -0.2488 -0.9594 -0.1330
vn -0.5643 -0.6428 0.5181
vn -0.7196 -0.5693 0.3977
vn -0.8198 -0.5269 0.2245
vn -0.8015 -0.5444 0.2472
vn -0.1829 -0.9709 -0.1545
vn -0.6712 -0.7391 0.0576
vn -0.4172 -0.8813 -0.2219
vn 0.6547 -0.4953 -0.5711
vn 0.7061 0.7081 0.0037
vn 0.2829 0.9561 0.0762
vn 0.1874 0.9507 0.2473
vn 0.8481 0.4715 0.2417
vn 0.9223 0.2922 0.2528
vn 0.9415 0.2897 -0.1722
vn 0.8819 0.3851 0.2720
vn 0.9180 -0.3543 -0.1782
vn 0.5024 -0.5688 0.6512
vn 0.0144 0.3823 0.9239
vn -0.9144 0.0973 0.3930
vn -0.3863 -0.9171 0.0984
vn 0.4812 -0.6741 0.5604
vn -0.0622 0.2160 0.9744
vn -0.9468 0.0413 0.3191
vn -0.3809 -0.9173 -0.1162
vn 0.2974 -0.7595 0.5785
vn -0.2292 0.1276 0.9650
vn -0.9859 0.0805 0.1469
vn -0.4154 -0.8690 -0.2688
vn -0.1534 0.9714 0.1813
vn -0.9842 0.0892 -0.1533
vn -0.0854 0.4516 0.8881
vn -0.9134 0.2423 0.3271
vn -0.8118 -0.5406 0.2208
vn -0.2536 -0.8293 -0.4979
vn -0.9332 0.3534 0.0650
vn -0.9263 0.2633 0.2695
vn -0.2888 -0.9049 -0.3127
vn 0.2913 0.8685 0.4011
vn 0.9580 -0.2799 0.0630
vn 0.3078 0.6539 0.6911
vn 0.8936 -0.4226 0.1516
vn -0.2783 -0.9027 -0.3281
vn -0.9572 0.2872 0.0349
vn -0.2628 -0.7463 -0.6115
vn -0.9150 0.3963 -0.0754
vn -0.9364 0.3388 0.0918
vn 0.3072 0.7942 0.5244
vn -0.9319 0.2771 0.2339
vn -0.9418 0.3362 -0.0011
vn -0.9508 0.2513 0.1813
vn -0.2717 -0.9040 -0.3300
vn -0.2732 -0.9581 0.0856
vn -0.0737 -0.9937 -0.0843
vn -0.9960 0.0446 0.0775
vn -0.0453 0.9138 0.4037
vn 0.9367 -0.0349 0.3483
vn 0.0043 -0.9649 -0.2625
vn 0.9884 -0.0702 0.1348
vn 0.0409 -0.9939 0.1020
vn -0.6885 -0.3500 0.6351
vn 0.0541 0.3270 0.9435
vn 0.8452 -0.2529 0.4708
vn 0.9469 -0.3099 0.0853
vn -0.2542 -0.8413 -0.4771
vn -0.2318 -0.8923 -0.3875
vn -0.2490 -0.9425 -0.2230
vn 0.3898 -0.7069 0.5901
vn -0.1320 0.1680 0.9769
vn -0.9646 0.0855 0.2495
vn -0.4162 -0.8924 -0.1744
vn -0.2453 -0.8266 -0.5065
vn -0.9341 0.3539 -0.0468
vn 0.2593 0.7529 0.6049
vn 0.9151 -0.3856 0.1176
vn -0.2860 -0.7750 -0.5635
vn -0.9216 0.3694 -0.1196
vn 0.7724 0.5309 -0.3486
vn 0.4367 0.8292 0.3489
vn 0.4028 -0.2347 -0.8847
vn -0.9743 0.0401 0.2218
vn -0.5798 -0.5126 -0.6333
vn -0.3066 0.6325 0.7113
vn -0.4483 0.6712 -0.5903
# 131 vertex normals

vt 0.2379 0.4142 0.4922
vt 0.3171 0.3883 0.4894
vt 0.3167 0.4321 0.4906
vt 0.4030 0.3883 0.4865
vt 0.4044 0.4497 0.4816
vt 0.4844 0.3883 0.4896
vt 0.4862 0.4319 0.4893
vt 0.1498 0.4142 0.4917
vt 0.0646 0.4319 0.4893
vt 0.0627 0.3883 0.4896
vt 0.2369 0.3725 0.4920
vt 0.3154 0.3442 0.4908
vt 0.4021 0.3307 0.4883
vt 0.1496 0.3724 0.4900
vt 0.4847 0.3442 0.4920
vt 0.0631 0.3442 0.4920
vt 0.3974 0.0343 0.4990
vt 0.4724 0.0343 0.4975
vt 0.4733 0.1493 0.4907
vt 0.3977 0.1493 0.4941
vt 0.0507 0.0343 0.4975
vt 0.1411 0.0343 0.5035
vt 0.1464 0.1493 0.4998
vt 0.0517 0.1493 0.4907
vt 0.3085 0.0343 0.4924
vt 0.3117 0.1493 0.4897
vt 0.2248 0.0343 0.5091
vt 0.2303 0.1493 0.5039
vt 0.4765 0.2607 0.5093
vt 0.3996 0.2607 0.4973
vt 0.1476 0.2607 0.5127
vt 0.0549 0.2607 0.5093
vt 0.3117 0.2607 0.5040
vt 0.2351 0.2607 0.5142
vt 0.3193 0.5742 0.4955
vt 0.2347 0.5742 0.5031
vt 0.4056 0.5741 0.4942
vt 0.4842 0.5741 0.5078
vt 0.1506 0.5742 0.5038
vt 0.0625 0.5741 0.5078
vt 0.3457 0.7640 0.5084
vt 0.2967 0.7625 0.5250
vt 0.2259 0.7492 0.5072
vt 0.4066 0.7396 0.5086
vt 0.4745 0.7227 0.5063
vt 0.1437 0.7212 0.4968
vt 0.0529 0.7227 0.5063
vt 0.6218 0.4690 0.4936
vt 0.6226 0.5863 0.5096
vt 0.5744 0.5865 0.4966
vt 0.5749 0.4643 0.4728
vt 0.6232 0.7082 0.5126
vt 0.5747 0.7055 0.4960
vt 0.6188 0.3664 0.6187
vt 0.5747 0.3654 0.6838
vt 0.6168 0.1584 0.4033
vt 0.6174 0.2703 0.4727
vt 0.5744 0.2722 0.4801
vt 0.5742 0.1634 0.5002
vt 0.6058 0.8932 0.4695
vt 0.6468 0.8942 0.4373
vt 0.6501 0.9434 0.4621
vt 0.6062 0.9433 0.4826
vt 0.7938 0.6827 0.4746
vt 0.7930 0.5724 0.5721
vt 0.8610 0.6288 0.5115
vt 0.8620 0.5752 0.5324
vt 0.8608 0.5404 0.5502
vt 0.7033 0.6799 0.6096
vt 0.6878 0.5559 0.6277
vt 0.6740 0.4708 0.5401
vt 0.7959 0.3065 0.6087
vt 0.7153 0.2623 0.4557
vt 0.8626 0.2484 0.5019
vt 0.8609 0.3094 0.5596
vt 0.8619 0.4317 0.5819
vt 0.7958 0.4249 0.6268
vt 0.8627 0.3679 0.5721
vt 0.8625 0.4915 0.4828
vt 0.6037 0.7741 0.5000
vt 0.6382 0.7741 0.5000
vt 0.6391 0.8050 0.5120
vt 0.6047 0.8050 0.5078
vt 0.0350 0.7591 0.4996
vt 0.0752 0.7591 0.5002
vt 0.0744 0.7936 0.5090
vt 0.0353 0.7957 0.5080
vt 0.4022 0.8198 0.5000
vt 0.4324 0.8199 0.5000
vt 0.4319 0.8511 0.5225
vt 0.4016 0.8510 0.5092
vt 0.7680 0.1831 0.5979
vt 0.7339 0.1282 0.4668
vt 0.8073 0.2073 0.4195
vt 0.8608 0.2055 0.4908
vt 0.8609 0.7429 0.4624
vt 0.8096 0.7412 0.4371
vt 0.8607 0.6831 0.4862
vt 0.3994 0.9187 0.4322
vt 0.4345 0.9191 0.3788
vt 0.4368 0.9474 0.3989
vt 0.3998 0.9449 0.4453
vt 0.5708 0.9602 0.5171
vt 0.5265 0.9585 0.5036
vt 0.5291 0.8944 0.5389
vt 0.5693 0.8916 0.5303
vt 0.3216 0.9741 0.4992
vt 0.3282 0.9144 0.5200
vt 0.3615 0.9155 0.5269
vt 0.3644 0.9737 0.4842
vt 0.4905 0.8948 0.5050
vt 0.4865 0.9432 0.5075
vt 0.2930 0.9188 0.4829
vt 0.2927 0.9475 0.4892
vt 0.6058 0.8869 0.4722
vt 0.6465 0.8872 0.4435
vt 0.5636 0.7879 0.4952
vt 0.5320 0.7896 0.4974
vt 0.4909 0.8877 0.5061
vt 0.5026 0.8047 0.4995
vt 0.4002 0.9120 0.4391
vt 0.4341 0.9123 0.3925
vt 0.3612 0.8339 0.4830
vt 0.3321 0.8326 0.4829
vt 0.2933 0.9124 0.4835
vt 0.2947 0.8515 0.4880
vt 0.0768 0.9038 0.4670
vt 0.1193 0.9035 0.5234
vt 0.1183 0.9799 0.5022
vt 0.0774 0.9419 0.4745
vt 0.0762 0.8953 0.4715
vt 0.1234 0.7817 0.4917
vt 0.4871 0.9559 0.5072
vt 0.6071 0.9563 0.4897
vt 0.6510 0.9568 0.4822
vt 0.0749 0.9552 0.4892
vt 0.8239 0.9490 0.4724
vt 0.8215 0.9601 0.4873
vt 0.7872 0.9606 0.4687
vt 0.7870 0.9494 0.4485
vt 0.2921 0.9579 0.4954
vt 0.4017 0.9574 0.4677
vt 0.4385 0.9581 0.4324
vt 0.7339 0.7857 0.7181
vt 0.7515 0.7236 0.7078
vt 0.8168 0.1582 0.4849
vt 0.7817 0.1479 0.4756
vt 0.7964 0.1149 0.4117
vt 0.8307 0.1130 0.4720
vt 0.8667 0.1575 0.4965
vt 0.8710 0.1147 0.5458
vt 0.9069 0.1480 0.5524
vt 0.9044 0.1204 0.5031
vt 0.9512 0.1150 0.4441
vt 0.9709 0.1483 0.5175
vt 0.7967 0.1017 0.4359
vt 0.9050 0.1047 0.5110
vt 0.9498 0.1015 0.4676
vt 0.8033 0.0584 0.4454
vt 0.8369 0.0468 0.4738
vt 0.8700 0.0486 0.5273
vt 0.8990 0.0598 0.5134
vt 0.9357 0.0585 0.4882
vt 0.8956 0.0274 0.4845
vt 0.9309 0.0242 0.5021
vt 0.1623 0.9035 0.5196
vt 0.1624 0.9775 0.5030
vt 0.1621 0.7851 0.5027
vt 0.0328 0.8967 0.4682
vt 0.0325 0.9049 0.4631
vt 0.0328 0.9421 0.4778
vt 0.0335 0.9550 0.4890
vt 0.7904 0.7776 0.4996
vt 0.8283 0.7766 0.4986
vt 0.8301 0.8160 0.5113
vt 0.7909 0.8179 0.5155
vt 0.7870 0.9147 0.4359
vt 0.8266 0.9136 0.4659
vt 0.9114 0.9805 0.5016
vt 0.8647 0.9805 0.5086
vt 0.8699 0.9173 0.5227
vt 0.9121 0.9183 0.5255
vt 0.9592 0.9494 0.5065
vt 0.9545 0.9151 0.5089
vt 0.7874 0.9073 0.4456
vt 0.8265 0.9060 0.4721
vt 0.9072 0.8039 0.4922
vt 0.9540 0.8183 0.4914
vt 0.9551 0.9077 0.5066
vt 0.8768 0.8014 0.4934
vt 0.2130 0.7968 0.5158
vt 0.2101 0.8967 0.4682
vt 0.2099 0.9049 0.4631
vt 0.2102 0.9421 0.4778
vt 0.9630 0.9602 0.5040
vt 0.2108 0.9550 0.4890
vt 0.3499 0.7476 0.5111
vt 0.0983 0.7220 0.5015
# 198 texture coords

o Object001
g Object001
usemtl 24___Default
s 1
f 1/1/1 2/2/2 3/3/3 
f 2/2/2 4/4/4 5/5/5 
f 5/5/5 3/3/3 2/2/2 
f 5/5/5 6/6/6 7/7/7 
f 6/6/6 5/5/5 4/4/4 
f 8/8/8 7/9/7 6/10/6 
f 9/11/9 10/12/10 2/2/2 
f 2/2/2 1/1/1 9/11/9 
f 2/2/2 11/13/11 4/4/4 
f 11/13/11 2/2/2 10/12/10 
f 1/1/1 8/8/8 12/14/12 
f 12/14/12 9/11/9 1/1/1 
f 11/13/11 13/15/13 6/6/6 
f 6/6/6 4/4/4 11/13/11 
f 6/10/6 12/14/12 8/8/8 
f 12/14/12 6/10/6 13/16/13 
f 14/17/14 15/18/15 16/19/16 
f 16/19/16 17/20/17 14/17/14 
f 15/21/15 18/22/18 19/23/19 
f 19/23/19 16/24/16 15/21/15 
f 20/25/20 14/17/14 17/20/17 
f 17/20/17 21/26/21 20/25/20 
f 18/22/18 22/27/22 23/28/23 
f 23/28/23 19/23/19 18/22/18 
f 22/27/22 20/25/20 21/26/21 
f 21/26/21 23/28/23 22/27/22 
f 17/20/17 16/19/16 24/29/24 
f 24/29/24 25/30/25 17/20/17 
f 19/23/19 26/31/26 24/32/24 
f 24/32/24 16/24/16 19/23/19 
f 17/20/17 25/30/25 27/33/27 
f 27/33/27 21/26/21 17/20/17 
f 19/23/19 23/28/23 28/34/28 
f 28/34/28 26/31/26 19/23/19 
f 23/28/23 21/26/21 27/33/27 
f 27/33/27 28/34/28 23/28/23 
f 24/29/24 13/15/13 11/13/11 
f 11/13/11 25/30/25 24/29/24 
f 26/31/26 12/14/12 13/16/13 
f 13/16/13 24/32/24 26/31/26 
f 27/33/27 25/30/25 11/13/11 
f 11/13/11 10/12/10 27/33/27 
f 26/31/26 28/34/28 9/11/9 
f 9/11/9 12/14/12 26/31/26 
f 28/34/28 27/33/27 10/12/10 
f 10/12/10 9/11/9 28/34/28 
f 1/1/1 3/3/3 29/35/29 
f 29/35/29 30/36/30 1/1/1 
f 3/3/3 5/5/5 31/37/31 
f 31/37/31 29/35/29 3/3/3 
f 5/5/5 7/7/7 32/38/32 
f 32/38/32 31/37/31 5/5/5 
f 7/9/7 8/8/8 33/39/33 
f 33/39/33 32/40/32 7/9/7 
f 8/8/8 1/1/1 30/36/30 
f 30/36/30 33/39/33 8/8/8 
f 34/41/34 35/42/35 29/35/29 
f 35/42/35 36/43/36 30/36/30 
f 30/36/30 29/35/29 35/42/35 
f 34/41/34 29/35/29 31/37/31 
f 31/37/31 37/44/37 34/41/34 
f 38/45/38 37/44/37 31/37/31 
f 31/37/31 32/38/32 38/45/38 
f 39/46/39 38/47/38 32/40/32 
f 32/40/32 33/39/33 39/46/39 
f 36/43/36 39/46/39 33/39/33 
f 33/39/33 30/36/30 36/43/36 
f 40/48/40 41/49/41 15/50/15 
f 15/50/15 14/51/14 40/48/40 
f 41/49/41 42/52/42 18/53/18 
f 18/53/18 15/50/15 41/49/41 
f 43/54/43 40/48/40 14/51/14 
f 14/51/14 20/55/20 43/54/43 
f 42/56/42 44/57/44 22/58/22 
f 22/58/22 18/59/18 42/56/42 
f 44/57/44 43/54/43 20/55/20 
f 20/55/20 22/58/22 44/57/44 
f 45/60/45 46/61/46 47/62/47 
f 47/62/47 48/63/48 45/60/45 
f 49/64/49 50/65/50 51/66/51 
f 52/67/52 51/66/51 50/65/50 
f 50/65/50 53/68/53 52/67/52 
f 54/69/54 55/70/55 50/65/50 
f 50/65/50 49/64/49 54/69/54 
f 53/68/53 50/65/50 55/70/55 
f 40/48/40 56/71/56 55/70/55 
f 55/70/55 41/49/41 40/48/40 
f 54/69/54 42/52/42 41/49/41 
f 41/49/41 55/70/55 54/69/54 
f 57/72/57 58/73/58 59/74/59 
f 59/74/59 60/75/60 57/72/57 
f 61/76/61 62/77/62 63/78/63 
f 64/79/64 56/71/56 62/77/62 
f 62/77/62 61/76/61 64/79/64 
f 43/54/43 62/77/62 56/71/56 
f 56/71/56 40/48/40 43/54/43 
f 43/54/43 44/57/44 58/73/58 
f 58/73/58 57/72/57 43/54/43 
f 65/80/65 66/81/66 67/82/67 
f 67/82/67 68/83/68 65/80/65 
f 69/84/69 70/85/70 71/86/71 
f 71/86/71 72/87/72 69/84/69 
f 73/88/73 74/89/74 75/90/75 
f 75/90/75 76/91/76 73/88/73 
f 77/92/77 44/57/44 42/56/42 
f 42/56/42 78/93/78 77/92/77 
f 58/73/58 79/94/79 80/95/80 
f 80/95/80 59/74/59 58/73/58 
f 80/96/80 79/97/79 49/64/49 
f 49/64/49 81/98/81 80/96/80 
f 82/99/82 83/100/83 84/101/84 
f 84/101/84 85/102/85 82/99/82 
f 60/103/60 59/104/59 86/105/86 
f 86/105/86 87/106/87 60/103/60 
f 61/107/61 88/108/88 89/109/89 
f 89/109/89 64/110/64 61/107/61 
f 48/63/48 60/103/60 87/106/87 
f 87/106/87 45/60/45 48/63/48 
f 46/111/46 86/105/86 59/104/59 
f 59/104/59 47/112/47 46/111/46 
f 83/113/83 88/108/88 61/107/61 
f 61/107/61 84/114/84 83/113/83 
f 85/102/85 64/110/64 89/109/89 
f 89/109/89 82/99/82 85/102/85 
f 90/115/90 91/116/91 46/61/46 
f 46/61/46 45/60/45 90/115/90 
f 65/117/65 68/83/68 90/115/90 
f 90/115/90 87/106/87 65/117/65 
f 90/115/90 45/60/45 87/106/87 
f 66/118/66 65/117/65 87/106/87 
f 87/106/87 86/105/86 66/118/66 
f 46/111/46 91/119/91 86/105/86 
f 86/105/86 91/119/91 67/120/67 
f 67/120/67 66/118/66 86/105/86 
f 92/121/92 93/122/93 83/100/83 
f 83/100/83 82/99/82 92/121/92 
f 73/123/73 76/91/76 92/121/92 
f 92/121/92 89/109/89 73/123/73 
f 92/121/92 82/99/82 89/109/89 
f 74/124/74 73/123/73 89/109/89 
f 89/109/89 88/108/88 74/124/74 
f 83/113/83 93/125/93 88/108/88 
f 88/108/88 93/125/93 75/126/75 
f 75/126/75 74/124/74 88/108/88 
f 94/127/94 95/128/95 60/129/60 
f 60/129/60 96/130/96 94/127/94 
f 94/127/94 97/131/97 95/128/95 
f 95/128/95 97/131/97 71/86/71 
f 71/86/71 70/132/70 95/128/95 
f 80/133/80 47/112/47 59/104/59 
f 81/134/81 48/63/48 47/62/47 
f 47/62/47 80/135/80 81/134/81 
f 81/136/81 96/130/96 60/129/60 
f 98/137/98 51/138/51 52/139/52 
f 52/139/52 99/140/99 98/137/98 
f 52/141/52 84/114/84 61/107/61 
f 53/142/53 85/102/85 84/101/84 
f 84/101/84 52/143/52 53/142/53 
f 85/102/85 53/142/53 64/110/64 
f 76/91/76 75/90/75 93/122/93 
f 93/122/93 92/121/92 76/91/76 
f 68/83/68 67/82/67 91/116/91 
f 91/116/91 90/115/90 68/83/68 
f 78/144/78 42/52/42 54/69/54 
f 54/69/54 100/145/100 78/144/78 
f 77/92/77 79/94/79 58/73/58 
f 58/73/58 44/57/44 77/92/77 
f 49/64/49 79/97/79 100/145/100 
f 100/145/100 54/69/54 49/64/49 
f 78/146/78 100/147/100 101/148/101 
f 101/148/101 102/149/102 78/146/78 
f 77/150/77 78/146/78 102/149/102 
f 102/149/102 103/151/103 77/150/77 
f 79/152/79 77/150/77 103/151/103 
f 103/151/103 104/153/104 79/152/79 
f 79/152/79 104/153/104 101/154/101 
f 101/154/101 100/155/100 79/152/79 
f 101/148/101 105/156/105 102/149/102 
f 106/157/106 104/153/104 103/151/103 
f 101/154/101 104/153/104 106/157/106 
f 106/157/106 105/158/105 101/154/101 
f 102/149/102 105/156/105 107/159/107 
f 107/159/107 108/160/108 102/149/102 
f 103/151/103 102/149/102 108/160/108 
f 108/160/108 109/161/109 103/151/103 
f 106/157/106 103/151/103 109/161/109 
f 109/161/109 110/162/110 106/157/106 
f 105/158/105 106/157/106 110/162/110 
f 110/162/110 107/163/107 105/158/105 
f 107/163/107 110/162/110 109/164/109 
f 109/164/109 108/165/108 107/163/107 
f 43/54/43 57/72/57 62/77/62 
f 57/72/57 60/75/60 63/78/63 
f 53/68/53 55/70/55 56/71/56 
f 56/71/56 64/79/64 53/68/53 
f 95/128/95 111/166/111 63/167/63 
f 63/167/63 60/129/60 95/128/95 
f 63/78/63 62/77/62 57/72/57 
f 70/132/70 69/168/69 111/166/111 
f 111/166/111 95/128/95 70/132/70 
f 97/131/97 112/169/112 72/87/72 
f 72/87/72 71/86/71 97/131/97 
f 94/127/94 113/170/113 112/169/112 
f 112/169/112 97/131/97 94/127/94 
f 96/130/96 114/171/114 113/170/113 
f 113/170/113 94/127/94 96/130/96 
f 96/130/96 81/136/81 51/172/51 
f 51/172/51 114/171/114 96/130/96 
f 51/66/51 81/98/81 49/64/49 
f 115/173/115 116/174/116 117/175/117 
f 117/175/117 118/176/118 115/173/115 
f 119/177/119 120/178/120 98/137/98 
f 98/137/98 99/140/99 119/177/119 
f 61/179/61 63/180/63 121/181/121 
f 121/181/121 122/182/122 61/179/61 
f 99/183/99 61/179/61 122/182/122 
f 122/182/122 119/184/119 99/183/99 
f 123/185/123 124/186/124 120/178/120 
f 120/178/120 119/177/119 123/185/123 
f 115/187/115 118/188/118 123/189/123 
f 123/189/123 122/182/122 115/187/115 
f 123/189/123 119/184/119 122/182/122 
f 116/190/116 115/187/115 122/182/122 
f 122/182/122 121/181/121 116/190/116 
f 118/176/118 117/175/117 124/186/124 
f 124/186/124 123/185/123 118/176/118 
f 72/191/72 112/192/112 111/166/111 
f 111/166/111 69/168/69 72/191/72 
f 113/193/113 111/166/111 112/192/112 
f 113/193/113 114/194/114 63/167/63 
f 63/167/63 111/166/111 113/193/113 
f 98/137/98 120/178/120 121/181/121 
f 121/181/121 63/180/63 98/137/98 
f 124/186/124 121/181/121 120/178/120 
f 124/186/124 117/175/117 116/190/116 
f 116/190/116 121/181/121 124/186/124 
f 52/195/52 61/179/61 99/183/99 
f 114/194/114 51/196/51 63/167/63 
f 63/180/63 51/138/51 98/137/98 
f 81/134/81 60/103/60 48/63/48 
f 35/42/35 34/41/34 125/41/125 
f 125/41/125 126/42/126 35/42/35 
f 34/41/34 37/44/37 127/44/127 
f 127/44/127 125/41/125 34/41/34 
f 38/47/38 39/46/39 128/46/128 
f 128/46/128 129/47/129 38/47/38 
f 36/43/36 35/42/35 126/42/126 
f 126/42/126 130/43/130 36/43/36 
f 37/44/37 38/45/38 129/45/129 
f 129/45/129 127/44/127 37/44/37 
f 39/46/39 36/43/36 130/43/130 
f 130/43/130 128/46/128 39/46/39 
f 126/42/126 125/41/125 131/197/131 
f 125/41/125 127/44/127 131/197/131 
f 129/47/129 128/46/128 131/198/131 
f 130/43/130 126/42/126 131/197/131 
f 127/44/127 129/45/129 131/197/131 
f 128/46/128 130/43/130 131/198/131 
# 258 faces

