# 3ds Max Wavefront OBJ Exporter v0.99 - (c)2007 guruware
# File Created: 08.12.2023 14:55:17

mtllib road.mtl

#
# object road
#

v  -0.5939 -1.0000 -1.0000
v  -0.5939 1.0000 -1.0000
v  0.5939 1.0000 -1.0000
v  0.5939 -1.0000 -1.0000
v  -1.0000 1.0000 -1.0000
v  -1.0000 -1.0000 -1.0000
v  -1.0000 -1.0000 1.0000
v  -1.0000 1.0000 1.0000
v  -0.5939 1.0000 1.0000
v  -0.5939 -1.0000 1.0000
v  0.5939 -1.0000 1.0000
v  0.5939 1.0000 1.0000
v  1.0000 1.0000 -1.0000
v  1.0000 1.0000 1.0000
v  1.0000 -1.0000 1.0000
v  1.0000 -1.0000 -1.0000
v  1.0000 1.0710 1.0000
v  1.0000 1.0710 -1.0000
v  0.5939 1.0710 -1.0000
v  0.5939 1.0710 1.0000
v  -1.0000 1.0710 -1.0000
v  -1.0000 1.0710 1.0000
v  -0.5939 1.0710 1.0000
v  -0.5939 1.0710 -1.0000
# 24 vertices

vn 0.0000 -0.7071 -0.7071
vn 0.0000 0.4472 -0.8944
vn -1.0000 0.0000 -0.0000
vn 0.0000 0.4472 0.8944
vn 0.0000 -0.7071 0.7071
vn 1.0000 0.0000 -0.0000
vn 1.0000 0.0000 0.0000
vn 0.0000 0.0000 -1.0000
vn 0.0000 0.0000 1.0000
vn 0.0000 1.0000 -0.0000
vn -1.0000 0.0000 0.0000
# 11 vertex normals

vt 0.1345 0.1896 0.0000
vt 0.1374 0.3346 0.0000
vt 0.0513 0.3363 0.0000
vt 0.0484 0.1914 0.0000
vt 0.0181 0.1244 0.0000
vt 0.0181 0.0255 0.0000
vt 0.1170 0.0255 0.0000
vt 0.1170 0.1244 0.0000
vt 0.1742 0.1319 0.0000
vt 0.1763 0.0283 0.0000
vt 0.2378 0.0296 0.0000
vt 0.2357 0.1332 0.0000
vt 0.4076 0.1423 0.0000
vt 0.2911 0.1357 0.0000
vt 0.2977 0.0192 0.0000
vt 0.4142 0.0258 0.0000
vt 0.4023 0.3523 0.0000
vt 0.4012 0.9813 0.0000
vt 0.0277 0.9806 0.0000
vt 0.0288 0.3517 0.0000
vt 0.2629 0.3348 0.0000
vt 0.2629 0.1698 0.0000
vt 0.3609 0.1698 0.0000
vt 0.3609 0.3348 0.0000
vt 0.1639 0.1890 0.0000
vt 0.1668 0.3340 0.0000
vt 0.0218 0.3369 0.0000
vt 0.0189 0.1920 0.0000
vt 0.1531 0.1315 0.0000
vt 0.1553 0.0279 0.0000
vt 0.2588 0.0300 0.0000
vt 0.2567 0.1336 0.0000
vt 0.6609 0.0356 0.0000
vt 0.6728 0.9639 0.0000
vt 0.4876 0.9673 0.0000
vt 0.4757 0.0390 0.0000
vt 0.7532 0.9643 0.0000
vt 0.7633 0.0348 0.0000
vt 0.9488 0.0357 0.0000
vt 0.9387 0.9653 0.0000
vt 0.2294 0.3348 0.0000
vt 0.2294 0.1698 0.0000
vt 0.3944 0.1698 0.0000
vt 0.3944 0.3348 0.0000
vt 0.4456 0.0307 0.0000
vt 0.6907 0.0276 0.0000
vt 0.7029 0.9722 0.0000
vt 0.4578 0.9753 0.0000
vt 0.9686 0.9744 0.0000
vt 0.7232 0.9716 0.0000
vt 0.7334 0.0257 0.0000
vt 0.9788 0.0285 0.0000
# 52 texture coords

o road
g road
usemtl 07___Default
s 1
f 1/1/1 2/2/2 3/3/2 
f 3/3/2 4/4/1 1/1/1 
f 5/5/3 6/6/3 7/7/3 
f 7/7/3 8/8/3 5/5/3 
f 9/9/4 10/10/5 11/11/5 
f 11/11/5 12/12/4 9/9/4 
f 13/13/6 14/14/7 15/15/6 
f 15/15/6 16/16/6 13/13/6 
f 12/17/4 3/18/2 2/19/2 
f 2/19/2 9/20/4 12/17/4 
f 10/21/5 1/22/1 4/23/1 
f 4/23/1 11/24/5 10/21/5 
f 6/25/1 5/26/8 2/2/2 
f 2/2/2 1/1/1 6/25/1 
f 13/27/8 16/28/1 4/4/1 
f 4/4/1 3/3/2 13/27/8 
f 8/29/9 7/30/5 10/10/5 
f 10/10/5 9/9/4 8/29/9 
f 15/31/5 14/32/9 12/12/4 
f 12/12/4 11/11/5 15/31/5 
f 17/33/10 18/34/10 19/35/10 
f 19/35/10 20/36/10 17/33/10 
f 21/37/10 22/38/10 23/39/10 
f 23/39/10 24/40/10 21/37/10 
f 7/41/5 6/42/1 1/22/1 
f 1/22/1 10/21/5 7/41/5 
f 16/43/1 15/44/5 11/24/5 
f 11/24/5 4/23/1 16/43/1 
s off
f 12/45/9 14/46/9 17/33/9 
f 17/33/9 20/36/9 12/45/9 
f 14/46/6 13/47/6 18/34/6 
f 18/34/6 17/33/6 14/46/6 
f 13/47/8 3/48/8 19/35/8 
f 19/35/8 18/34/8 13/47/8 
f 3/48/11 12/45/11 20/36/11 
f 20/36/11 19/35/11 3/48/11 
f 2/49/8 5/50/8 21/37/8 
f 21/37/8 24/40/8 2/49/8 
f 5/50/3 8/51/3 22/38/3 
f 22/38/3 21/37/3 5/50/3 
f 8/51/9 9/52/9 23/39/9 
f 23/39/9 22/38/9 8/51/9 
f 9/52/6 2/49/6 24/40/6 
f 24/40/6 23/39/6 9/52/6 
# 44 faces

